<svg xmlns="http://www.w3.org/2000/svg" width="140" height="58" viewBox="0 0 140 58">
  <path d="M32.2643378,17 C32.7671962,17 33.1795701,17.1558297 33.4919557,17.4678077 C33.8043191,17.7797634 33.9603285,18.1915359 33.9603285,18.6936661 L33.9603285,32.4555644 C33.9603285,34.0514829 33.5858054,35.5015063 32.8367635,36.8029334 C32.0880172,38.103847 31.0714799,39.1293125 29.7889469,39.8773343 C28.5057141,40.6257644 27.0735473,41 25.4952737,41 C23.9172759,41 22.4753829,40.6259045 21.172304,39.8778681 C19.8690426,39.1297269 18.8469199,38.1038084 18.108,36.8021367 C17.3693171,35.5008825 17,34.0511553 17,32.4555644 C17,30.8616286 17.3433101,29.4134202 18.0302034,28.1130976 C18.7178703,26.8113105 19.6637033,25.7897065 20.8661257,25.0507198 C22.0693942,24.3112132 23.4120513,23.9413083 24.890893,23.9413083 C26.0823122,23.9413083 27.1931114,24.1878305 28.2215835,24.6808529 C29.1219332,25.1124568 29.9044723,25.6940932 30.5683471,26.4250903 L30.5683471,18.6936661 C30.5683471,18.190464 30.7302574,17.7778527 31.0537658,17.4659074 C31.3754838,17.1556884 31.7819162,17 32.2643378,17 Z M25.4952737,26.9664853 C24.5158385,26.9664853 23.6320062,27.2054426 22.8406279,27.6835529 C22.048031,28.1623994 21.4223714,28.8165321 20.9619426,29.6481358 C20.5014777,30.4798048 20.2711052,31.4147775 20.2711052,32.4555644 C20.2711052,33.4965478 20.5015708,34.4367956 20.9623105,35.278751 C21.4227623,36.1201805 22.0483113,36.7790783 22.8406279,37.2577554 C23.6320062,37.7358657 24.5158385,37.974823 25.4952737,37.974823 C26.474709,37.974823 27.3585413,37.7358657 28.1499196,37.2577554 C28.9418593,36.779306 29.5621092,36.1208456 30.0124656,35.2799736 C30.4635527,34.4377373 30.6892232,33.4970375 30.6892232,32.4555644 C30.6892232,31.4142854 30.4636425,30.4788573 30.0128232,29.6469087 C29.562495,28.8158664 28.9421383,28.1621709 28.1499196,27.6835529 C27.3585413,27.2054426 26.474709,26.9664853 25.4952737,26.9664853 Z M51.8680608,23.9413083 C53.4465634,23.9413083 54.8140611,24.290438 55.967583,24.9898767 C57.1212432,25.6893992 58.0077024,26.6673495 58.6249768,27.9208362 C59.2402392,29.1702373 59.5474206,30.6018798 59.5474206,32.2141276 C59.5474206,32.6378072 59.3997941,32.9950509 59.1071005,33.2761198 C58.8154858,33.5561526 58.4443882,33.6965365 58.0025251,33.6965365 L46.7028871,33.6965365 C46.943092,34.9854063 47.5534106,36.0288115 48.5363425,36.8328289 C49.5654384,37.6746075 50.824989,38.0955414 52.3213464,38.0955414 C52.9082247,38.0955414 53.5211106,37.9878142 54.1603694,37.7717321 C54.8001037,37.5554892 55.3241656,37.2913545 55.7310609,36.9817652 C56.0408856,36.7386491 56.4070881,36.6167409 56.8239827,36.6167409 C57.2430517,36.6167409 57.5824923,36.7297401 57.8297092,36.9543833 C58.2257362,37.2839752 58.4293163,37.6680135 58.4293163,38.0991498 C58.4293163,38.5114946 58.2440898,38.858341 57.8873141,39.1254998 C57.1875094,39.6805019 56.3204947,40.131376 55.2869093,40.4788616 C54.2541526,40.8260686 53.2655461,41 52.3213464,41 C50.6440693,41 49.1378008,40.636716 47.8048979,39.9096959 C46.4706373,39.1819353 45.4275287,38.1709785 44.6779308,36.8788403 C43.9285952,35.5871544 43.5541013,34.1218736 43.5541013,32.485744 C43.5541013,30.8510571 43.9077213,29.3821223 44.6154173,28.0812513 C45.3240129,26.7787265 46.3112454,25.7619715 47.5750651,25.0334016 C48.8382008,24.305226 50.2701119,23.9413083 51.8680608,23.9413083 Z M51.8680608,26.8457669 C50.4333088,26.8457669 49.2761825,27.2358484 48.3893673,28.0144487 C47.5412724,28.7590538 46.9906949,29.7435858 46.7369331,30.9731555 L56.4333645,30.9731555 C56.237709,29.7399801 55.7575641,28.7536068 54.9933434,28.0089986 C54.1974907,27.2335702 53.1587615,26.8457669 51.8680608,26.8457669 Z M70.514253,18.6634865 C70.514253,18.1810392 70.6706652,17.7793611 70.9826257,17.4678077 C71.2946081,17.1562324 71.6968735,17 72.1800246,17 C72.6631757,17 73.0654411,17.1562324 73.3774235,17.4678077 C73.689384,17.7793611 73.8457963,18.1810392 73.8457963,18.6634865 L73.8457963,35.1415489 C73.8457963,35.860353 73.9807115,36.4474309 74.2477975,36.9046951 C74.5038246,37.3430259 74.8181587,37.5523086 75.2019282,37.5523086 L75.9574041,37.5523086 C76.4036786,37.5523086 76.7732981,37.7113215 77.0550456,38.026467 C77.3333747,38.3377888 77.4720806,38.7367403 77.4720806,39.2157951 C77.4720806,39.7085503 77.2565501,40.1163909 76.8349809,40.4266155 C76.4236945,40.7292731 75.8979789,40.8792816 75.2623663,40.8792816 L75.2019282,40.8792816 C74.3047772,40.8792816 73.4937034,40.633664 72.7727518,40.1432219 C72.0532843,39.6537893 71.4960374,38.9672417 71.1018788,38.0867218 C70.7099107,37.2110949 70.514253,36.2289409 70.514253,35.1415489 L70.514253,18.6634865 Z M92.1633037,34.8699325 C92.1633037,35.6404288 92.3735357,36.2798453 92.7933589,36.7944105 C93.2078663,37.3024603 93.7082158,37.5523086 94.3051305,37.5523086 L95.3325778,37.5523086 C95.7398737,37.5523086 96.0889269,37.7123207 96.3697812,38.026467 C96.6481103,38.3377888 96.7868162,38.7367403 96.7868162,39.2157951 C96.7868162,39.7035673 96.6008148,40.108859 96.2335891,40.4200378 C95.8716735,40.726717 95.4079258,40.8792816 94.8490732,40.8792816 L94.3051305,40.8792816 C93.288941,40.8792816 92.358779,40.6146092 91.5179942,40.085917 C90.6786938,39.5581582 90.0203007,38.8384951 89.5443916,37.9292483 C89.0691491,37.0212752 88.8317604,36.0008049 88.8317604,34.8699325 L88.8317604,27.5700774 L87.5965046,27.5700774 C87.1361691,27.5700774 86.7559708,27.4360648 86.4640053,27.1669099 C86.1702189,26.8960764 86.02139,26.5530733 86.02139,26.1480277 C86.02139,25.7039344 86.1692067,25.3405529 86.4640053,25.0687862 C86.7559708,24.7996313 87.1361691,24.6656188 87.5965046,24.6656188 L88.8317604,24.6656188 L88.8317604,20.4742626 C88.8317604,19.9918153 88.9881727,19.5901371 89.3001331,19.2785838 C89.6121155,18.9670085 90.0143809,18.8107761 90.497532,18.8107761 C90.9806831,18.8107761 91.3829485,18.9670085 91.6949309,19.2785838 C92.0068914,19.5901371 92.1633037,19.9918153 92.1633037,20.4742626 L92.1633037,24.6656188 L94.5771019,24.6656188 C95.0374374,24.6656188 95.4176357,24.7996313 95.7096012,25.0687862 C96.0043998,25.3405529 96.1522164,25.7039344 96.1522164,26.1480277 C96.1522164,26.5530733 96.0033876,26.8960764 95.7096012,27.1669099 C95.4176357,27.4360648 95.0374374,27.5700774 94.5771019,27.5700774 L92.1633037,27.5700774 L92.1633037,34.8699325 Z M114.534945,23.9413083 C116.113219,23.9413083 117.545386,24.315544 118.828618,25.063974 C120.111151,25.8119959 121.127689,26.8374613 121.876435,28.1383749 C122.625477,29.439802 123,30.8898254 123,32.485744 L123,39.2157951 C123,39.698607 122.838242,40.1052591 122.516518,40.4265637 C122.194772,40.7478901 121.787527,40.9094612 121.304009,40.9094612 C120.820492,40.9094612 120.413247,40.7478901 120.091501,40.4265637 C119.769776,40.1052591 119.608019,39.698607 119.608019,39.2157951 L119.608019,38.516218 C118.944144,39.2472151 118.161605,39.8288515 117.261255,40.2604554 C116.232783,40.7534779 115.121984,41 113.930565,41 C112.451723,41 111.109066,40.6300952 109.905797,39.8905885 C108.703375,39.1516019 107.757542,38.1299978 107.069875,36.8282108 C106.382982,35.5278881 106.039672,34.0796798 106.039672,32.485744 C106.039672,30.890153 106.408989,29.4404258 107.147672,28.1391716 C107.886591,26.8374999 108.908714,25.8115815 110.211976,25.0634402 C111.515054,24.3154038 112.956947,23.9413083 114.534945,23.9413083 Z M114.534945,26.9664853 C113.55551,26.9664853 112.671678,27.2054426 111.880299,27.6835529 C111.087983,28.1622301 110.462434,28.8211278 110.001982,29.6625573 C109.541242,30.5045127 109.310777,31.4447605 109.310777,32.485744 C109.310777,33.5265308 109.541149,34.4615035 110.001614,35.2931725 C110.462043,36.1247762 111.087703,36.7789089 111.880299,37.2577554 C112.671678,37.7358657 113.55551,37.974823 114.534945,37.974823 C115.514381,37.974823 116.398213,37.7358657 117.189591,37.2577554 C117.98181,36.7791374 118.602167,36.1254419 119.052495,35.2943996 C119.503314,34.462451 119.728895,33.527023 119.728895,32.485744 C119.728895,31.4442708 119.503224,30.503571 119.052137,29.6613347 C118.601781,28.8204627 117.981531,28.1620024 117.189591,27.6835529 C116.398213,27.2054426 115.514381,26.9664853 114.534945,26.9664853 Z"/>
</svg>
