<svg id="Capa_1" data-name="Capa 1" xmlns="http://www.w3.org/2000/svg" viewBox="0 0 190.9 211.96"><defs><style>.cls-1{fill:#eaeae8;}.cls-2{fill:#fff;}.cls-3{fill:#d8d7d4;}.cls-4{fill:#3f3e3d;}.cls-5{fill:#605958;}.cls-6{fill:#ffbb24;}.cls-7{fill:#333;}.cls-8{fill:#3333b9;}.cls-9{fill:#ffe706;}.cls-10{fill:#8cc63f;}.cls-11{fill:#c1272d;}</style></defs><title>stikersanimations</title><path class="cls-1" d="M63.33,188.1a10.37,10.37,0,0,1-10.06,2.73,16.4,16.4,0,0,1-8.8-6.16c-5.86-7.6-6.47-18-5.68-27.54a119.12,119.12,0,0,1,4.39-23.58C46,124,50.63,114.11,59.51,109.68a7.89,7.89,0,0,1,3.07-1,10.64,10.64,0,0,1,4.53,1.22,54.59,54.59,0,0,0,37,1.74c5-1.56,10.31-3.87,15.27-2.15,4.26,1.47,7,5.55,9.21,9.48a112.88,112.88,0,0,1,14.62,48.35c.24,4.1.22,8.3-1.11,12.18S137.9,187,134,188.22a6.05,6.05,0,0,1-5.07-.35c-1.47-.95-2.2-3.13-1.17-4.55a6.59,6.59,0,0,0-4,0l-15.28,3.29a107.85,107.85,0,0,1-17.11,2.73c-9.18.47-18.3-1.41-27.3-3.28"/><path class="cls-1" d="M63,187.8c-9.19,8.67-19.68-3-22.4-11.63-2.19-7-1.93-14.6-1.14-21.79,1.56-14.24,4.84-34.14,17.7-42.83C63.8,107.06,73,113,80.26,114a55.24,55.24,0,0,0,19.8-.78c9.27-2.08,18.65-7.51,25.72,2.15,4.58,6.26,7.83,14.08,10.48,21.31a109.44,109.44,0,0,1,6.06,25.45c.51,4.61.92,9.37.13,14A17.83,17.83,0,0,1,139.9,183a12.59,12.59,0,0,1-2.67,2.86,5.42,5.42,0,0,1-2.18,1.37q-3.91,2.49-6.9-3.82a.43.43,0,0,0-.3-.52c-3.56-.82-7.41.71-10.89,1.46-5.69,1.22-11.37,2.59-17.11,3.56-12.17,2-23.72.22-35.68-2.26-.53-.11-.76.71-.23.82,13.19,2.74,25.61,4.33,39,1.74,3.17-.61,6.33-1.33,9.49-2,3.5-.75,7.89-2.52,11.46-2.47,6.39.1,1.54.24,3.15,2.23,1.2,1.48,1.48,2.54,3.6,2.92,8.7,1.57,12.75-9.68,13.08-16.26.63-12.67-2.74-26.13-7.24-37.86a119.9,119.9,0,0,0-7.1-15.22c-2.3-4.14-5.08-8.72-9.79-10.4s-9.47.17-13.92,1.57a57.4,57.4,0,0,1-21.93,2.78,54.15,54.15,0,0,1-10-1.75c-3.13-.86-6.29-2.81-9.47-3.31-3.76-.59-7.17,1.81-9.88,4.19C46,120,42.72,131.95,40.52,142.4c-2.47,11.74-4.5,25.65.41,37,3.65,8.47,14.29,16.89,22.7,9,.4-.38-.2-1-.6-.6Z"/><path class="cls-2" d="M53.13,106.95a9.14,9.14,0,0,0-3.07,3,3.18,3.18,0,0,0,.65,4c.62.43,1.51.61,1.79,1.31a2.16,2.16,0,0,1-.39,1.77c-4.46,8-9.37,16-10.94,25-.95,5.43-.63,11-.24,16.5s.84,11.09,1.35,16.62a2.88,2.88,0,0,0,.93,2.26,2.79,2.79,0,0,0,1.85.22l11.14-1.25a4.2,4.2,0,0,1,2.12.12c1.86.79,1.66,3.45,2.22,5.4,1.19,4.12,6.24,5.4,10.45,6,16.59,2.16,34.4,3.46,49.14-4.53A16.62,16.62,0,0,0,125,179.7c.69-.81,1.26-1.73,2-2.49,3-2.94,7.68-2.53,11.77-3.27a3,3,0,0,0,1.8-.82,3.23,3.23,0,0,0,.56-1.88,84.77,84.77,0,0,0-12.4-51.09c-.41-.66-.85-1.48-.5-2.18.26-.52.86-.75,1.33-1.09a4,4,0,0,0,1.18-4.39,10.17,10.17,0,0,0-2.66-4c-1.55-1.61-3.33-3.18-5.51-3.62a9.83,9.83,0,0,0-6.41,1.39c-4.74,2.53-8.45,6.61-12.65,10s-9.42,6.14-14.71,5.27c-5.48-.9-9.56-5.38-14.11-8.59a34.23,34.23,0,0,0-21.39-6.2"/><path class="cls-2" d="M52.37,105.65c-2.69,2-5.37,4.7-3.66,8.28.25.53,1,.85,1.24,1.32.92,1.92.33,2-.82,4-1.69,3-3.38,6-4.87,9.1-6.16,12.88-5.28,25.51-4.13,39.37.28,3.35-.66,10.19,3.57,11.36,2.44.67,6.29-.55,8.78-.83.91-.1,3-.62,3.71-.42,3.14.85,2.31,3.42,3.36,5.58,1.79,3.69,6,5,9.75,5.66a134.74,134.74,0,0,0,18.52,1.8c11.75.44,25.81-.66,35.66-7.89,2.72-2,4.08-5.1,7.37-6.36,2.65-1,5.64-.46,8.31-1.28,4.25-1.3,3.65-5.44,3.72-9.31a86.82,86.82,0,0,0-8-37.58q-1.08-2.35-2.3-4.62c-.46-.86-2.62-3.56-2.59-4.47.05-1.39,1.19-1.86,1.78-3,2.22-4.17-1.8-8.72-5-11.05-11.76-8.68-23.13,12.68-33.74,14.6-8.4,1.52-13.88-6.34-20.41-10.06a36.77,36.77,0,0,0-19.41-4.66c-1.93.05-1.93,3.05,0,3A33.74,33.74,0,0,1,71.2,112.5c4.48,2.56,8,6.57,12.64,8.9,8,4,15.71.16,22-5.1,4.48-3.76,9.8-10.45,16.15-9.46,4.37.68,8.27,4.59,6.09,9.24-.7,1.49-1.54,1-1.36,3,.1,1.22,1.05,2.27,1.63,3.3,1.41,2.51,2.8,5,4,7.62a84.17,84.17,0,0,1,5.79,17.61,82.43,82.43,0,0,1,1.77,17.59,19.93,19.93,0,0,1-.13,4.31c-.62,2.53-1.28,3-3.78,3.29a27.63,27.63,0,0,0-6.54,1.2c-4.16,1.58-6.15,5.84-10.05,8a49.07,49.07,0,0,1-18.13,5.46,90.19,90.19,0,0,1-15.11.35c-5.8-.3-12.38-.46-18-2-3.27-.91-5.32-2.31-6.43-5.55-.49-1.41-.32-3-1.45-4.15-2.64-2.72-8.3-.77-11.49-.41-.13,0-3.34.64-3.71.42-1.88-1.1-1.61-4.64-1.77-6.52-.32-3.69-.61-7.39-.86-11.09-.48-7.12-.73-14.17,1.4-21.07,1.9-6.17,5.17-11.81,8.32-17.4.75-1.33,2.22-3.08,1.85-4.77-.54-2.55-5.49-3-.12-7,1.53-1.14,0-3.75-1.51-2.59Z"/><path class="cls-3" d="M70,42.78a10.84,10.84,0,0,0-1.49-4.06c-2.7-3.76-9-2.91-12-6.43-1.49-1.74-2-4.44-4.13-5.37a4.35,4.35,0,0,0-4.38.82,9.94,9.94,0,0,0-2.62,3.83,29.49,29.49,0,0,0-2.14,16.21C44.2,54.26,48.3,61,54.77,62"/><path class="cls-3" d="M70.42,42.67C69.8,40.05,69,38,66.62,36.54c-3.49-2.13-7.77-1.81-10.46-5.4-1.43-1.91-1.85-4.21-4.46-4.77-2.08-.44-3.89.7-5.18,2.27-7.7,9.39-5.27,30.87,8.13,33.76.53.12.76-.7.23-.82-5.67-1.22-9.19-6-10.7-11.32-1.46-5.18-1.69-13.83,1.59-18.46q.66-3.14,4.56-1.85,3.26-2.19,4.22.08c.59.44,1.07,1.92,1.55,2.47a8.53,8.53,0,0,0,2.41,1.85C63.28,37,68,36.29,69.6,42.9c.13.53.95.31.82-.23Z"/><path class="cls-3" d="M114.2,47.28c2-5.37,7.68-8.15,9.8-13.38a10.62,10.62,0,0,1,1.59-3.3,5.34,5.34,0,0,1,5.89-1,10.13,10.13,0,0,1,4.36,4.15,25,25,0,0,1,2.5,21.15A12.73,12.73,0,0,1,134,61.45a14.51,14.51,0,0,1-7.34,2.22"/><path class="cls-3" d="M114.57,47.5c1.74-3.94,5-6.44,7.59-9.75,3.3-4.21,5.27-13.41,12.41-4.92,3.38,4,4.85,10,4.6,15.12-.39,8-4,14.39-12.51,15.3-.54.06-.54.91,0,.85,6.76-.72,10.77-3.92,12.55-10.58a25.27,25.27,0,0,0-3-20c-2.2-3.37-7.22-7.14-10.91-3.26A7.78,7.78,0,0,0,124,32.64a25.07,25.07,0,0,1-4.3,6.6c-2.29,2.53-4.48,4.67-5.88,7.84-.22.5.51.93.73.43Z"/><path class="cls-1" d="M59.86,47.46c7.81-9.9,21.93-13.11,34.62-11.74a42.7,42.7,0,0,1,9.71,2.08c11.32,4,19.64,14.45,22.33,26,1.52,6.51,2.56,14.22,7.91,18.83-.32,1.17-2.29,1.12-2.71,2.25-.36,1,.67,1.9.7,2.92s-1,1.85-1.69,2.71A10.38,10.38,0,0,0,129.45,93c-6.15,14.94-21.85,21.4-37.18,20.91-9.36-.3-18.5-2.81-27.35-5.79C55.7,105,45.89,101,41.46,91.8l-1.6-3.34a2.57,2.57,0,0,1-.35-2c.27-.65,1-1,1.62-1.3s1.24-1,1-1.66a1.82,1.82,0,0,0-.5-.72l-2.27-2.32c6.68-5.59,6.44-16.69,16.22-19.27"/><path class="cls-1" d="M60.16,47.76c12.31-14.74,39-16.1,53.59-4,7.11,5.9,11,13.91,13,22.77a54.62,54.62,0,0,0,2.7,9.53c.73,1.72,1.93,3.11,2.73,4.75.14.28.93.81,1,1.12.41,2.75-.58.69-1.14,1.95-.94,2.11-.56,3.66-1.55,6.3a38.26,38.26,0,0,1-6.38,10.9c-5.6,6.57-13.77,10.37-22.18,11.78-10.27,1.73-20.73-.25-30.6-3.17-8.66-2.56-18.44-5.4-25-11.94a20,20,0,0,1-4.42-6.16c-1-2.48-1.78-2.36-.43-6.11.11-.31.93-.47.94-.82.07-2-1.86-3.33-1.41-5.07.22-.84,1.92-2.42,2.4-3.2,1-1.6,1.78-3.31,2.63-5,2.27-4.46,4.75-8.23,9.78-9.81.52-.16.3-1-.23-.82-9.41,3-9.82,13.38-16.41,19.38a.43.43,0,0,0,0,.6c1.77,1.8.61,3.1.45,5,0,.27-.46.36-.46.68,0,2,1.06,3.78,2,5.58a27.29,27.29,0,0,0,10.68,11c11.4,6.71,26.44,10.68,39.55,11.3,10.63.5,21.78-2.18,30-9.25,4.47-3.87,6.56-8.56,9.52-13.51a13.33,13.33,0,0,0,2-3.86c.28-1.18-.43-2.16.5-3.56-.09.13,1.45-1.27,1.47-1.29a.43.43,0,0,0-.07-.52c-7.21-6.85-6.42-17.59-10.41-26.12a36.39,36.39,0,0,0-17.25-17.64c-15-7-36.64-4.37-47.51,8.64-.35.42.25,1,.6.6Z"/><path class="cls-4" d="M59.08,48.9l-6.55-7c-.78-.84-1.8-1.75-2.91-1.47-1.46.37-1.64,2.36-1.38,3.84a25.33,25.33,0,0,0,4,9.81c.59.87,1.55,1.81,2.53,1.43a2.49,2.49,0,0,0,1.07-1.06l3.55-5.37"/><path class="cls-4" d="M59.83,48.15c-2.17-2.32-4.24-4.82-6.55-7-1-1-2.14-2-3.66-1.78-3.1.49-2.63,4.42-2.11,6.61.72,3.06,2.43,9,5.62,10.36,3.43,1.49,5.73-4.57,7.14-6.71.76-1.14-1.08-2.21-1.84-1.07s-3.16,6.28-5,5.42c-1.59-.76-3-5.32-3.39-6.7a11.12,11.12,0,0,1-.86-3.67v-.68q2.29-1.29,3.39.6c2.11,1.47,4,4.26,5.73,6.13.94,1,2.44-.5,1.5-1.5Z"/><path class="cls-4" d="M122.4,51.25a16.47,16.47,0,0,0,4.35-7.71,8.24,8.24,0,0,1,3,9.11c-.48,1.43-1.75,2.88-3.22,2.55-2.13-.47-2-3.69-3.47-5.26"/><path class="cls-4" d="M123.15,52a18.64,18.64,0,0,0,4.63-8.18l-1.56.64c2.22,1.71,4.1,5.95,2.13,8.52-1.82,2.39-2.68-.14-3.25-1.53a8.43,8.43,0,0,0-1.31-2.26c-.87-1.06-2.36.45-1.5,1.5,1.23,1.5,1.18,3.84,2.85,5s3.74.32,4.84-1.25c2.71-3.86.72-9.23-2.69-11.85a1.07,1.07,0,0,0-1.56.64,16.36,16.36,0,0,1-4.08,7.24c-.95,1,.55,2.49,1.5,1.5Z"/><path class="cls-5" d="M73.27,103.62a7.78,7.78,0,0,1-1.16-5.89,9.82,9.82,0,0,1,2.3-3.85,15.19,15.19,0,0,1,4.46-3.73,11.55,11.55,0,0,1,10.77.56,16.21,16.21,0,0,1,6.87,8.6,6.09,6.09,0,0,1,.47,2.62c-.17,1.76-1.57,3.12-3,4.21a13.44,13.44,0,0,1-5.65,3c-4.2.8-8.31-1.83-12.59-1.89"/><path class="cls-5" d="M58.13,95.75c4.3,2,7,.58,10.9.23,2.29-.2,2.61-2.36,4.24,1.51,2.09,5,7.11,9,12.49,8.55,5.15-.44,9.93-6.36,7.65-11.44,2.6-.76,4.2.93,6.59,1.39,3.23.61,7.38-.47,10.51-1.29,4.17-1.09,8.32-3.36,10.24-7.21s1.29-8.21.54-12.34-2.41-7.32-6.1-9.65c-5.06-3.19-13.94-1.63-18.93,1.34-4.08,2.42-8,7.32-13.28,6.4-1.49-.26-2.86-1.89-4.2-2.58C73.63,68,68.56,63.81,62.55,63.44,55.6,63,51,68,50.42,74.86c-.33,4.14-.65,8.4.27,12.49S54.44,94,58.13,95.75Z"/><path class="cls-5" d="M87.89,91.08q.66-5.52,1.86-10.95a15.2,15.2,0,0,0,.64-4.44c-.11-1.62-.45-3.12.33-4.67.88-1.75,2.81-2.69,4.68-3.26,4.55-1.37,9.59-1.68,14.27-2.41a10,10,0,0,1,8.52,2.94c2.58,2.62,2.23,7.15,2.34,10.6s.21,7.26-1.3,10.48c-1.8,3.86-5.71,6.44-9.84,7.46-3.48.86-8.67,1.29-12.08-.1a53.24,53.24,0,0,1-9.49-5.27"/><path class="cls-5" d="M60.52,46.09c-.62.76-1.26,1.85-.67,2.64s1.79.5,2.7.16a90.66,90.66,0,0,1,30.74-5.8,32.63,32.63,0,0,1,10.39,1.19c6.14,2,11,6.79,17,9a1.38,1.38,0,0,0,1.05.09c.57-.27.52-1.1.33-1.71-1.64-5.27-6.38-9-11.26-11.55a52.52,52.52,0,0,0-40.54-3.28c-3.77,1.26-7.74,3.32-9.08,7.06"/><path class="cls-6" d="M54.28,82.68c.82,3.58,4.51,6.33,8.49,7.19a21.5,21.5,0,0,0,11.9-1.27,4.63,4.63,0,0,0,1.94-1.13,3.41,3.41,0,0,0,.7-1.92c.37-3.47-1-8.55-3.84-10.75A25,25,0,0,0,65,70.5c-3.42-1-5.89.16-8.19,2.73a13.56,13.56,0,0,0-3.06,4.95,6.49,6.49,0,0,0,.7,5.57"/><path class="cls-6" d="M52.83,83.08c2.24,6.89,9.7,9.36,16.38,8.45,3-.41,7.76-1.11,9.18-4.2,1.15-2.5.31-6.16-.59-8.6-2.15-5.83-10.3-11-16.57-9.91-6.68,1.2-11.15,9.74-8.11,15.69.88,1.72,3.47.2,2.59-1.51-1.83-3.59.31-7.49,3.12-9.71,2.39-1.9,4.55-1.69,7.25-.85,4.43,1.38,8.27,4.25,9.4,8.88.35,1.45.79,4.29-.51,5.54s-6,1.79-7.67,1.87c-4.73.23-10-1.54-11.58-6.44-.59-1.83-3.49-1-2.89.8Z"/><path class="cls-6" d="M90.73,85.48a25.81,25.81,0,0,0,8.85,5.2,10,10,0,0,0,3.54.69,10.66,10.66,0,0,0,3.25-.76c3.06-1.09,6.13-2.39,8.18-4.52,3.69-3.83,2.29-8.15.28-12.37-.87-1.83-1.82-2.27-3.83-2-2.83.31-5.72.48-8.52,1C96,74,91.91,78.82,91.49,85.44"/><path class="cls-6" d="M89.67,86.54a28.35,28.35,0,0,0,9.52,5.58c3.93,1.3,7.3.28,11-1.4,7.21-3.28,9.82-9,6.61-16.35-1-2.19-2-3.9-4.48-4.22-3.58-.45-8.62.48-12.06,1.59-6.26,2-9.6,7.36-10.24,13.68-.2,1.92,2.81,1.91,3,0,.45-4.41,2.53-8.32,6.67-10.26,3.11-1.46,11.3-3.53,13.88-.69,2.43,2.67,2.13,8,0,10.55-1.46,1.69-4,2.78-6,3.57-5.85,2.33-11.25-.35-15.72-4.18-1.46-1.25-3.59.86-2.12,2.12Z"/><path d="M64.39,78a2.24,2.24,0,0,0,.92,2.5,1.91,1.91,0,0,0,2.53-.56A2.12,2.12,0,0,0,68,78.14,2,2,0,0,0,66,76.7a1.34,1.34,0,0,0-1.1,1.86"/><path d="M64,77.86a2.61,2.61,0,0,0,1.65,3.21,2.25,2.25,0,0,0,2.86-1.8,2.62,2.62,0,0,0-2.24-3,1.78,1.78,0,0,0-1.68,2.5c.24.49,1,.06.73-.43-.46-.95.85-1.44,1.53-1a1.83,1.83,0,0,1,.63,2.37,1.48,1.48,0,0,1-1.82.47,1.79,1.79,0,0,1-.84-2.08c.13-.53-.69-.76-.82-.23Z"/><path d="M103.55,78.3a1.78,1.78,0,0,0-1.18,2.11,2,2,0,0,0,2,1.42,2.28,2.28,0,0,0,2-1.58,1.77,1.77,0,0,0,.07-.84A1.91,1.91,0,0,0,104.9,78c-.71-.16-.86.13-1.35.29"/><path d="M103.44,77.89a2.22,2.22,0,0,0-1.38,2.89,2.44,2.44,0,0,0,3.2,1.26,2.51,2.51,0,0,0,1.4-3.26,2.47,2.47,0,0,0-1.54-1.15,2.4,2.4,0,0,0-1.68.26c-.51.19-.29,1,.23.82s1.09-.45,1.73,0a1.44,1.44,0,0,1-.18,2.42,1.62,1.62,0,0,1-2.11-.22,1.35,1.35,0,0,1,.56-2.16c.51-.18.29-1-.23-.82Z"/><path class="cls-2" d="M62,82.82a2.8,2.8,0,0,0,2.33-.55,1.65,1.65,0,0,0,.25-2.22c-.69-.78-2.07-.44-2.74.36a1.51,1.51,0,0,0-.42,1.06.77.77,0,0,0,.76.73"/><path class="cls-2" d="M101.2,84A2.72,2.72,0,0,0,103,81.63a.68.68,0,0,0-.07-.42.67.67,0,0,0-.41-.25,2,2,0,0,0-2.26.87A1.59,1.59,0,0,0,101,84"/><path d="M79.3,94.75c0,1.45,0,3,.9,4.18a6.53,6.53,0,0,0,3.73,1.88,3,3,0,0,0,1.49.12,2.72,2.72,0,0,0,1-.61,13.75,13.75,0,0,0,2.34-2.55,4.89,4.89,0,0,0,1-2.12,2.17,2.17,0,0,0-.81-2.08c-1.09-.74-2.55,0-3.87,0-1.05,0-2-.59-3.09-.66s-2.32.75-2,1.76"/><path d="M78.87,94.75c0,3.33,1,5.39,4.35,6.31,1.43.39,2.33.48,3.52-.45a10.69,10.69,0,0,0,3.06-3.75c1.18-2.65-.61-4.22-3.17-3.93a11.65,11.65,0,0,1-3.92-.37,3.34,3.34,0,0,0-1.65,0,2,2,0,0,0-1.56,2.06c0,.55.87.55.85,0-.08-2,4.28-.67,5.37-.71a9.41,9.41,0,0,1,2-.27C90.81,94.28,88.8,97,88,98c-.51.66-1.47,2-2.27,2.26a4.94,4.94,0,0,1-2.9-.24c-2.58-.87-3.14-2.76-3.13-5.32a.43.43,0,0,0-.85,0Z"/><path d="M85,100.69a22.63,22.63,0,0,0,.5,3.78"/><path d="M84.53,100.69a25.18,25.18,0,0,0,.51,3.89c.11.54.93.31.82-.23a23.69,23.69,0,0,1-.48-3.66c0-.54-.88-.55-.85,0Z"/><path d="M85.67,105.5a6.58,6.58,0,0,1-3.38-.13"/><path d="M85.56,105.09A6.36,6.36,0,0,1,82.4,105a.43.43,0,0,0-.23.82,7.29,7.29,0,0,0,3.61.13c.54-.11.31-.93-.23-.82Z"/><path d="M85.51,105.38c1.45.92,3.06.46,4.54-.18s2.72-1.23,2.57-3c0-.54-.9-.55-.85,0,.19,2.24-4.3,3.4-5.83,2.43-.46-.29-.89.44-.43.73Z"/><path class="cls-7" d="M66.88,39.62a56.69,56.69,0,0,1,49.55,4.44,1.5,1.5,0,0,0,1.51-2.59,59.6,59.6,0,0,0-51.86-4.75c-1.79.68-1,3.58.8,2.89Z"/><path class="cls-7" d="M119,44.21c1.4-3.45,4.81-5.53,6.47-8.86.56-1.13.93-3,1.95-3.8,4.47-3.52,8.17,4,9,6.67,2.6,8.55,2.11,22.31-8.83,24.24-1.9.33-1.09,3.23.8,2.89,13.67-2.41,15-21.67,9.37-31.68-2.2-3.91-7.68-8.06-12-4.58-2.34,1.88-2.79,5.3-4.67,7.58s-3.83,4-5,6.75c-.73,1.79,2.18,2.57,2.89.8Z"/><path class="cls-7" d="M125.63,64.59a57.46,57.46,0,0,0,3.18,11.6,24.09,24.09,0,0,0,2.58,4.67,8.51,8.51,0,0,1,1,1.32q1.63.89.46,1.13a4.86,4.86,0,0,0-2.15,1.48c-1.54,1.13,0,3.73,1.51,2.59,2.62-1.92,5.17-3.23,3.17-6.36-1.79-2.81-3.59-5-4.71-8.25a69.48,69.48,0,0,1-2.18-9c-.37-1.89-3.27-1.09-2.89.8Z"/><path class="cls-7" d="M130,88.33a9.89,9.89,0,0,0,3.92,2.19l-.9-2.2c-5.23,7.34-11.19,14.48-19.16,18.95-8.14,4.56-17.71,5.87-26.91,5.13s-18.14-3.63-26.62-7.16C51.5,101.56,40.06,97.93,40,86.54a1.5,1.5,0,0,0-3,0c0,10.21,7.24,14.73,15.67,18.59,9.86,4.51,20.11,8.5,30.92,9.91,10,1.29,20.39.37,29.55-4,9.52-4.57,16.46-12.74,22.48-21.18a1.51,1.51,0,0,0-.9-2.2l-2.6-1.42c-1.45-1.26-3.58.85-2.12,2.12Z"/><path class="cls-7" d="M39.61,87.31a13.32,13.32,0,0,0,3.58-3.42c.75-1-.3-2.14-1.3-2.26a2.89,2.89,0,0,1-2.09-1.4c-1-1.64-3.61-.13-2.59,1.51a6.1,6.1,0,0,0,4.68,2.89l-1.3-2.26a9.4,9.4,0,0,1-2.5,2.34c-1.61,1-.11,3.64,1.51,2.59Z"/><path class="cls-7" d="M52.83,60.4a26.78,26.78,0,0,0-7.72,8.19c-2.13,3.37-3.47,8.24-7.35,10-1.76.79-.23,3.37,1.51,2.59,3-1.36,4.58-4.08,6.09-6.91,2.31-4.33,4.82-8.47,9-11.25,1.6-1.07.1-3.67-1.51-2.59Z"/><path class="cls-7" d="M53.71,59.87c-5.9-.05-8.28-8-9.41-12.71a22.12,22.12,0,0,1,.86-13,21.65,21.65,0,0,1,1.93-3.82l6.53.46c1,.55,1.91,2.61,2.85,3.37,2.73,2.19,6.93,1.93,8.55,5.52.79,1.76,3.38.23,2.59-1.51-1.23-2.71-3.36-3.69-6-4.77-3.77-1.54-4.8-4.38-7.68-6.74-4.88-4-8.85.46-10.9,4.9a25.64,25.64,0,0,0-.63,19.55c2,5.49,4.66,11.71,11.32,11.77a1.5,1.5,0,0,0,0-3Z"/><path class="cls-7" d="M169.34,108.08c-10.32-5.75-22.94,1-23,13.11,0,6.33,3.82,10.43,7.58,15,3.4,4.14,5.46,8.8,2.81,14s-8.08,7.17-13.47,7.51c-1.92.12-1.93,3.12,0,3,10.52-.66,21.74-9.63,16.49-21.16-2.88-6.33-10.08-10.2-10.42-17.69-.45-10,9.93-16,18.53-11.21,1.69.94,3.2-1.65,1.51-2.59Z"/><path class="cls-7" d="M167.3,110.22a12.33,12.33,0,0,1,6.94,4.87c2.34,3.48,1,5.54-.47,9-1.15,2.81-1.86,5-1.45,8.15.48,3.73,2.34,7.07,3.17,10.71a21.2,21.2,0,0,1-2.36,15.23c-.93,1.69,1.66,3.21,2.59,1.51a24.58,24.58,0,0,0,3.22-14.1c-.56-6.55-6.12-13.58-2.58-20,2.22-4,3.57-6.28,1.18-10.85a15.41,15.41,0,0,0-9.45-7.45c-1.85-.57-2.64,2.33-.8,2.89Z"/><path class="cls-7" d="M156.9,112c2-2,9.12,1.09,11,2.07a23.32,23.32,0,0,1,7.26,6.11l1.82-2.36c-7.44-4.28-21.28-11-28.13-2.47-1.2,1.49.91,3.63,2.12,2.12,5.7-7.07,18.37-.58,24.49,2.94,1.56.89,2.86-1.09,1.82-2.36a25.54,25.54,0,0,0-11.74-8.25c-3-1-8.2-2.51-10.78.07A1.5,1.5,0,0,0,156.9,112Z"/><path class="cls-7" d="M150,127.26a17.23,17.23,0,0,1,10-2.45c3,.19,9.33,1.56,10.28,5.12l1.85-1.85c-7.09-1.15-14.29-2-20.55,2.23l2.2.9a28.16,28.16,0,0,0-1.41-3.93l-2.05-.54,1.26,2.28a1.51,1.51,0,0,0,2.05.54l2.13-1.6-2.2-.9-.11,1.27a1.52,1.52,0,0,0,2.2,1.69,8.43,8.43,0,0,1,5.68-1.36v-3A7.09,7.09,0,0,1,158,125l-.4,2.95a27.74,27.74,0,0,1,10.31,1,1.5,1.5,0,0,0,.8-2.89c-3.82-1.23-10.34-3.63-14.34-1.81-1.61.73-3.31,3.16-1,4.23,1.74.8,3.27-1.79,1.51-2.59,3.91,1.79,8.84,1.72,13,3.06l.8-2.89c-3.71-.9-7.27-1.61-11.1-1.12a1.51,1.51,0,0,0-.4,2.95,12.54,12.54,0,0,0,4.05.75c2,.07,1.88-2.8,0-3a10,10,0,0,0-7.19,1.77l2.2,1.69a5.08,5.08,0,0,0,.11-2.87,1.51,1.51,0,0,0-2.2-.9L152,127l2.05.54-1.26-2.28a1.52,1.52,0,0,0-2.05-.54c-2.61,1.65-.68,5.05,0,7.31a1.51,1.51,0,0,0,2.2.9C158.6,129.14,165,130,171.27,131a1.52,1.52,0,0,0,1.85-1.85c-1.17-4.34-6.75-6.37-10.8-7.06a20.46,20.46,0,0,0-13.85,2.6,1.5,1.5,0,0,0,1.51,2.59Z"/><path class="cls-7" d="M161.27,142.91a14.37,14.37,0,0,1,12.85.16,1.51,1.51,0,0,0,1.82-2.36c-4-4.84-10-3.45-15.59-3.54l.4,2.95a11.8,11.8,0,0,1,8.24.95c2.08,1,6.59,3.17,6.48,5.88l2.56-1.06a21.71,21.71,0,0,0-18.69-4.66l.8,2.89a17.17,17.17,0,0,1,15.15,3.23c1.54,1.16,3-1.44,1.51-2.59a20,20,0,0,0-17.46-3.53c-1.87.5-1.08,3.31.8,2.89A18.47,18.47,0,0,1,175.9,148a1.52,1.52,0,0,0,2.56-1.06c.16-3.94-3.86-6.32-7-8-3.65-1.93-7.51-2.86-11.56-1.76a1.51,1.51,0,0,0,.4,2.95c4.65.08,10.07-1.44,13.47,2.66l1.82-2.36a17.59,17.59,0,0,0-15.87-.16c-1.74.84-.22,3.42,1.51,2.59Z"/><path class="cls-7" d="M158.42,154.29a16,16,0,0,1,10.32.14c2.28.85,4.72,2.29,1,3.38-1.67.49-3.44.73-5.14,1.07-2.48.51-4.18.71-6.58-.3l-2.69-1.16q-2.46-.82-.51-.49a2.73,2.73,0,0,0,2.67-.78,12.93,12.93,0,0,1,3.15-.7,12.24,12.24,0,0,1,6.28,1.16l.76-2.8a98,98,0,0,0-10.33.08,1.5,1.5,0,0,0,0,3c4,.52,9.21.46,12.93,2.07,1.75.75,3.28-1.82,1.51-2.59l-3.36-1.47-.36,2.74a4,4,0,0,1,2.67-.21l-.4-2.95q-6.95,1.11-13.93,1.95c-1.88.23-1.94,3.18,0,3a9.42,9.42,0,0,1,5.8,1.11l.36-2.74-4.08-.32c-1.75-.78-3.28,1.81-1.51,2.59a8.89,8.89,0,0,0,6.39.62,1.52,1.52,0,0,0,.36-2.74,12.09,12.09,0,0,0-7.31-1.52v3q7.39-.89,14.73-2.06c1.83-.29,1.1-2.75-.4-2.95a7.4,7.4,0,0,0-3.47.32c-1.11.35-1.61,2.19-.36,2.74l3.36,1.47,1.51-2.59c-4.38-1.89-9.76-1.87-14.44-2.48v3a98,98,0,0,1,10.33-.08c1.43.06,2.13-2.17.76-2.8-4.46-2-13.7-2.79-16.8,2.36-1,1.69,0,2.56,1.5,3.35,2.5,1.33,5.82,3,8.74,2.74,2.59-.26,15.64-1.64,13.56-7.08-.88-2.29-5-3.63-7.08-4.24a19,19,0,0,0-10.72.24c-1.84.56-1.06,3.45.8,2.89Z"/><path class="cls-7" d="M162.58,158.18l3.4,1-.36-2.74-2.47,1.43a1.53,1.53,0,0,0-.69,1.69,1.58,1.58,0,0,0,1.45,1.1,5.7,5.7,0,0,0,2.85-.37,1.55,1.55,0,0,0,1-1.85,1.51,1.51,0,0,0-1.85-1,3.82,3.82,0,0,1-2.05.26l.76,2.8,2.47-1.43a1.52,1.52,0,0,0-.36-2.74l-3.4-1a1.5,1.5,0,0,0-.8,2.89Z"/><path class="cls-7" d="M173,159.3a32,32,0,0,1-22.1,12.36c-1.9.2-1.92,3.21,0,3a35.32,35.32,0,0,0,24.69-13.85c1.18-1.53-1.43-3-2.59-1.51Z"/><path class="cls-7" d="M159.09,161.52a7.48,7.48,0,0,1,5.68,3.95,1.51,1.51,0,0,0,2.74-1.16l-.73-3.13L164,162.33l1.62,2.44a1.52,1.52,0,0,0,2.59,0l2.23-3.39-2.8-.76-.06,1.45c-.25,1.34,1.43,2.69,2.51,1.46l2.6-3-2.51-1.46a9.26,9.26,0,0,1-.85,2.28c-.69,1.42,1.19,3.21,2.36,1.82l2.58-3.09L172,158.3a6.17,6.17,0,0,1-1.35,1.79c-1.33,1.4.79,3.52,2.12,2.12a12.94,12.94,0,0,0,1.81-2.39c.84-1.42-1.24-3.16-2.36-1.82l-2.58,3.09L172,162.9a18.11,18.11,0,0,0,1.15-3,1.51,1.51,0,0,0-2.51-1.46l-2.6,3,2.51,1.46a7.21,7.21,0,0,0,.17-2.25,1.51,1.51,0,0,0-2.8-.76l-2.23,3.39h2.59l-1.62-2.44a1.51,1.51,0,0,0-2.74,1.16l.73,3.13,2.74-1.16a10.63,10.63,0,0,0-8.27-5.43c-1.91-.25-1.89,2.76,0,3Z"/><path class="cls-7" d="M174.29,114.16c-1.63-3.55-7-3.84-10.39-4.33-4.53-.67-8.84-.31-12.87,2-1.68.94-.17,3.54,1.51,2.59A15.91,15.91,0,0,1,162,112.6c2.21.2,8.56.58,9.7,3.08.8,1.75,3.39.23,2.59-1.51Z"/><path class="cls-7" d="M126.88,117.76A95.06,95.06,0,0,1,139.76,149c2.08,9.74,5.49,27.3-2.36,35.3a10.59,10.59,0,0,1-3,2.36q-2,1.55-4.67-.26v-1.68c-.72-2.31-.09-6-.18-8.47-.2-5.17-.59-10.34-1.31-15.46a85.26,85.26,0,0,0-9.49-29.68c-.93-1.69-3.52-.18-2.59,1.51,7.4,13.43,9.8,28.47,10.39,43.63.13,3.38.13,6.77.19,10.15,0,1.54-.11,2.5,1.07,3.56,3.19,2.86,8.91-.54,11.34-2.7,8.16-7.23,6-23,4.7-32.34a97.69,97.69,0,0,0-14.37-38.63c-1-1.62-3.63-.12-2.59,1.51Z"/><path class="cls-7" d="M147.48,160.06a35.17,35.17,0,0,1,6.17,10.4,1.7,1.7,0,0,1-1.49,2.71,51.89,51.89,0,0,1-6.48.82,1.19,1.19,0,0,1-1.44-1.37c-.42-2.94-.15-5.94-.54-8.88a5,5,0,0,1,0-2.26,1.49,1.49,0,0,1,1.75-1.06"/><path class="cls-7" d="M146.42,161.12a35.67,35.67,0,0,1,4,5.85,12.11,12.11,0,0,1,1.51,3.2c.31,1.81-.67,1.68-2.31,1.92-.17,0-3.58.74-3.94.4s-.19-3.18-.21-3.81-.54-6.77,0-6.76a1.5,1.5,0,0,0,0-3c-4.68,0-3.11,5.83-3,8.77.06,1.93-.28,4.68.69,6.44s3,1.36,4.72,1.18c2.93-.31,8.3-.31,7.46-4.61s-4.08-8.48-6.76-11.7c-1.24-1.48-3.35.65-2.12,2.12Z"/><path class="cls-7" d="M152.52,158.3c4.33,2.77,9.92,4.21,12.72,8.84a1.52,1.52,0,0,0,2.74-.36c.13-.7,1.25-6.18.75-6.43a1.51,1.51,0,0,0,1.82-2.36,6.19,6.19,0,0,0-1.66-1.3l-1.16,2.74c1.58.27,3.06-.38,2.62-2.24s-3.34-1.08-2.89.8l.06.28.39-1.46-.22.23,1.46-.39-.62-.11c-1.6-.27-2.71,1.83-1.16,2.74l1.06.83,1.82-2.36c-5-2.49-4.66,5.6-5.16,8.22l2.74-.36c-3.15-5.2-8.93-6.8-13.8-9.91-1.63-1-3.14,1.55-1.51,2.59Z"/><path class="cls-7" d="M165.4,109.1a4,4,0,0,1-1.19-.56l-.76,2.8a4.67,4.67,0,0,1,3.5,1.26c1.41,1.32,3.53-.8,2.12-2.12a7.72,7.72,0,0,0-5.62-2.14,1.51,1.51,0,0,0-.76,2.8,6.71,6.71,0,0,0,1.91.86,1.5,1.5,0,0,0,.8-2.89Z"/><path class="cls-7" d="M78.46,191a103,103,0,0,0,49.81-7.75c1.77-.75.24-3.33-1.51-2.59A100,100,0,0,1,78.46,188c-1.92-.18-1.91,2.83,0,3Z"/><path class="cls-7" d="M71.55,113.57c6.17,4,11.12,12,19.41,11.48,7.33-.48,14.47-6.17,19.45-11.18a1.5,1.5,0,0,0-2.12-2.12c-4.58,4.61-12.48,11.18-19.46,10.15C82.45,121,78.21,114.35,73.06,111c-1.62-1.06-3.12,1.53-1.51,2.59Z"/><path class="cls-7" d="M122.9,106.6a9.41,9.41,0,0,1,7.35,4.17c.48.73,1.86,3.35,1.2,4.29-.4.56-11.85.16-13.13.29a84.43,84.43,0,0,0-11.49,2c-4.64,1.15-9.1,3.26-13.94,3.39-1.93,0-1.93,3,0,3,6.88-.18,13.47-3.48,20.25-4.65a79.22,79.22,0,0,1,12.68-1.15c1.89,0,5.75.92,7.52-.23,2.56-1.67,1-5.8-.18-7.87a12.52,12.52,0,0,0-10.26-6.22c-1.93-.14-1.92,2.86,0,3Z"/><path class="cls-7" d="M53.83,104.59c-5.92,2.14-11.75,10.2-2.73,12.61,5.65,1.51,11.65.48,17.34,2,6.15,1.64,12.14,4.25,18.11,6.45,1.81.67,2.6-2.23.8-2.89-6.47-2.38-13-5.39-19.77-6.86a56.5,56.5,0,0,0-9.1-.89c-1.6-.08-3.55.12-5.05-.45-5.16-1.95-2.74-5.64,1.19-7.06,1.8-.65,1-3.55-.8-2.89Z"/><path class="cls-7" d="M42.31,180.54a35.42,35.42,0,0,1,18.19-1c1.88.38,2.69-2.51.8-2.89a38.61,38.61,0,0,0-19.78,1c-1.83.59-1,3.49.8,2.89Z"/><path class="cls-7" d="M130.62,177.94a18.41,18.41,0,0,1,9.95-1.74c1.92.18,1.91-2.82,0-3a21.35,21.35,0,0,0-11.46,2.15c-1.74.84-.22,3.43,1.51,2.59Z"/><path class="cls-7" d="M127.23,38a8.86,8.86,0,0,1-.45,2.6,1.5,1.5,0,1,0,2.89.8,11.79,11.79,0,0,0,.55-3.4c0-1.93-3-1.93-3,0Z"/><path class="cls-7" d="M62,45.68Q56.45,57,50,67.9a4.7,4.7,0,0,1-1.53,1.8,4.26,4.26,0,0,1-3.3,0,13.44,13.44,0,0,1-7.44-5c-2.79-4.08-2.17-9.85.59-13.95s7.3-6.71,12-8.26a13.77,13.77,0,0,1,6.42-.86,6.13,6.13,0,0,1,5,3.77"/><path class="cls-7" d="M60.66,44.92c-2.24,4.59-4.57,9.13-7,13.6a54.69,54.69,0,0,1-4,7.06c-2.54,3.31-5.77,3-8.87.14C27.35,53.45,55.41,36.12,60.42,46.21c.86,1.73,3.45.21,2.59-1.51-3.57-7.18-12.64-4.4-18.22-1.4-6.4,3.44-11.61,10.18-10.11,17.82,1,5.19,8.37,12.75,14.21,10,3.1-1.44,4.91-6.75,6.45-9.52,2.77-5,5.39-10.05,7.89-15.18.84-1.73-1.74-3.25-2.59-1.51Z"/><path class="cls-7" d="M48.3,43.07c2-6.45,4.77-12.79,9.8-17.47,6.68-6.21,15.69-7.82,24.53-7.66,9.16.17,18.25,1.87,27.21,3.66,3.67.73,7.58,1.5,10.77,3.56,5,3.23,5.27,8.6,5.16,14,0,1.93,3,1.93,3,0,.2-9.14-2.41-15.76-11.58-18.84-10.15-3.4-22-4.89-32.71-5.33-9.31-.39-18.94.91-26.49,6.78-6.57,5.11-10.2,12.71-12.58,20.5-.57,1.85,2.33,2.64,2.89.8Z"/><path class="cls-7" d="M119.44,47.76a73.19,73.19,0,0,1,8.15,20.66c.39,1.71,1.22,3.86,3,3.8a3.15,3.15,0,0,0,1.65-.69,13.27,13.27,0,0,0,4.49-6.25,19.57,19.57,0,0,0-2.52-18.12,10.07,10.07,0,0,0-3.94-3.42c-3.8-1.65-8.24.49-11.18,3.41"/><path class="cls-7" d="M118.14,48.52A75.14,75.14,0,0,1,124.57,63c.88,2.78,1.06,7.26,3.24,9.43,4.25,4.24,9.1-3.42,10.34-6.79a20.86,20.86,0,0,0-3.32-20.1c-4.93-5.82-11.65-4.15-16.82.51-1.44,1.29.69,3.41,2.12,2.12,3.16-2.85,7.18-5,11.24-2,2,1.55,3.46,4.6,4.19,7a18.28,18.28,0,0,1,.54,8.62c-.35,2-1.62,6.7-3.76,7.64-3.71,1.64-3.6-2.79-4.15-4.77q-.92-3.3-2.14-6.52A81.65,81.65,0,0,0,120.73,47a1.5,1.5,0,0,0-2.59,1.51Z"/><path class="cls-7" d="M126.31,42.6c-1.16-6.83-.95-13-8-16.11-8.39-3.7-18.53-4.32-27.57-5.18-8.29-.79-17.67-2.12-25.81.37C57.52,24,53.12,30,49.07,36.31c-1.05,1.63,1.54,3.13,2.59,1.51C55.8,31.41,60.12,25.63,68,24c6.73-1.37,14.09-.46,20.86.12a150.07,150.07,0,0,1,21.75,3.06c4.38,1,9.64,2.06,11.16,6.85.93,2.91,1.1,6.34,1.61,9.36.32,1.9,3.21,1.09,2.89-.8Z"/><path class="cls-7" d="M49.82,43.81C51.76,37,53.73,29,60.16,25c5-3.1,11.32-3.75,17.11-3.76A96.12,96.12,0,0,1,98,23.63c6.52,1.43,12.79,3.69,19.51,4a1.51,1.51,0,0,0,.4-2.95C99.7,20,81.32,15.61,62.45,18.23l.8,2.89c9.89-2.4,20-2.2,30-.48,4.45.77,8.85,1.81,13.22,3,1.32.35,16,4.21,14.85,5.82l2.36-.3-1.13-1c-1.45-1.24-3.5.73-2.12,2.12a15.91,15.91,0,0,0,3.17,2.51,1.52,1.52,0,0,0,2.2-.9l.6-1.53-2.95-.4L124,40.09a1.5,1.5,0,0,0,3,0,38.59,38.59,0,0,0,0-8h-3a29.68,29.68,0,0,1,.08,5.62c-.15,1.93,2.85,1.92,3,0a29.68,29.68,0,0,0-.08-5.62c-.2-1.9-3.19-1.93-3,0a38.59,38.59,0,0,1,0,8h3L126.41,30a1.51,1.51,0,0,0-2.95-.4l-.6,1.53,2.2-.9a8.56,8.56,0,0,1-2.56-2l-2.12,2.12,1.13,1a1.53,1.53,0,0,0,2.36-.3c1.81-2.62.12-4.85-2.41-6.06-5.91-2.83-13.52-4.1-19.87-5.59-12.89-3-26.15-4.23-39.14-1.07-1.93.47-1.05,3.15.8,2.89,18.26-2.53,36.26,1.94,53.84,6.47l.4-2.95c-8.92-.42-17.49-4-26.32-5.28-6.83-1-13.89-1.58-20.76-.69-5.27.69-10.73,2.28-14.74,5.95-5.05,4.62-6.93,12.05-8.73,18.4a1.5,1.5,0,0,0,2.89.8Z"/><path class="cls-7" d="M65.73,169.88c0-2.56.52-5.69,2.92-6.57s4.79,1.15,6.31,3.18a31.92,31.92,0,0,1,5.5,11.86c.66,2.87.89,6-.52,8.63a13.48,13.48,0,0,1-4.12,4.21A59.55,59.55,0,0,1,44.7,202.46a7.93,7.93,0,0,1-4.35-.6,8,8,0,0,1-2.74-3.07c-3.46-5.7-6.19-12.55-4.25-18.93.51-1.67,1.8-3.51,3.52-3.24,2.43.38,2.38,3.85,3.08,5.61,1.24,3.09,5.22,3.78,7.78,5.64a24.66,24.66,0,0,0,3.87,2.62,14.1,14.1,0,0,0,5.69,1.07c1.78,0,3.75-.11,5-1.37s1.43-3.51,1.06-5.37-1.13-3.68-1.15-5.58,1.59-2.56,2.49-4S65.72,171.63,65.73,169.88Z"/><path class="cls-7" d="M67.23,169.88q-.42-4.08,5.66-3.53l1.72,2.23a30.07,30.07,0,0,1,2.41,4.3c1.72,3.73,3.68,9.38,1.62,13.33-2.86,5.49-12.54,9.38-18,11.36A58.68,58.68,0,0,1,51,200.2a25.46,25.46,0,0,1-6.26.76c-2.86-.27-5-2-6.65-4.37a23.11,23.11,0,0,1-3.69-10.45c-.23-2.15-1-6,1.92-6.11,2.32-.11,1.39.27,2.1,2.17,1.47,4,5.34,4.85,8.61,7,4.06,2.63,8.11,5,13.23,3.66,3.95-1,5.2-4.19,4.67-8-.14-1-.73-2.17-.76-3.17C64,179.4,65.27,177.79,66,176a15.71,15.71,0,0,0,1.22-6.08c0-1.93-3-1.93-3,0-.06,2.37-1.14,4.14-2.16,6.09a9.46,9.46,0,0,0-1.16,2.24,6.7,6.7,0,0,0,0,2.64c.43,3.26,2,4.52-.53,7.29-2,2.18-3,2.2-5.75,1.62-2.53-.53-4.07-1.84-6.11-3.19-3.14-2.07-6.1-2.7-7.59-6.56-1.11-2.89-2.74-6.54-6.51-4.16-4.24,2.67-3.49,10-2.4,14.13,1.15,4.31,3.63,11.28,7.94,13.33,5.15,2.44,14.08-.44,19.12-2,10.3-3.25,25.53-9.53,23-22.6-1.08-5.52-4.32-14.23-10-16.58-5.47-2.26-7.61,3.49-7.81,7.79C64.15,171.81,67.15,171.81,67.23,169.88Z"/><path class="cls-8" d="M68,178.25l-.45.32a1.54,1.54,0,0,0-.54,2.05,1.51,1.51,0,0,0,2.05.54l.45-.32a1.54,1.54,0,0,0,.54-2.05,1.51,1.51,0,0,0-2.05-.54Z"/><path class="cls-9" d="M73.09,179.84l-.61.44a1.54,1.54,0,0,0-.54,2.05,1.51,1.51,0,0,0,2.05.54l.61-.44a1.54,1.54,0,0,0,.54-2.05,1.51,1.51,0,0,0-2.05-.54Z"/><path class="cls-10" d="M71,176.29a1.5,1.5,0,0,0,0-3,1.5,1.5,0,0,0,0,3Z"/><path class="cls-11" d="M76,177.79a1.5,1.5,0,0,0,0-3,1.5,1.5,0,0,0,0,3Z"/><path class="cls-7" d="M50.18,115.54a73,73,0,0,0-12.68,36.38,75,75,0,0,0,1.24,19.58c1,5,1.94,11.57,5.19,15.64,5.1,6.38,21.63,9.71,20.73-2.49-.62-8.39-4.83-16.2-4.91-24.8-.08-8.32,4.78-16.19,8.21-23.49.82-1.74-1.77-3.26-2.59-1.51-4.7,10-9.69,19.05-8.1,30.41.79,5.64,2.5,11,3.65,16.6.68,3.28,1.51,4.91-1.81,6.78-2.71,1.53-4.15,1.34-7.07.42a10.57,10.57,0,0,1-7.38-7.4c-7.36-21.84-5.11-45.42,8.09-64.59,1.1-1.59-1.5-3.1-2.59-1.51Z"/><path class="cls-2" d="M40.79,190.82a39.29,39.29,0,0,0,1.34,5.55.43.43,0,0,0,.82-.23l-1.65-5.82a.43.43,0,0,0-.84.11,11.07,11.07,0,0,0,1.11,6c.24.49,1,.06.73-.43a10.24,10.24,0,0,1-1-5.57l-.84.11,1.65,5.82.82-.23a39.29,39.29,0,0,1-1.34-5.55c-.09-.54-.91-.31-.82.23Z"/><path class="cls-2" d="M39.17,195.15c1.89-.53,5-1.27,6.16-3,.19-.3-.13-.76-.48-.62l-4.64,1.78c-.9.35-1.69.63-2.07,1.57l.62-.25c-.15-.1,1.21-.68,1.38-.74l1.75-.65,3.24-1.2-.48-.2c.66,1-5.19,2.64-5.86,2.84a.43.43,0,0,0,.23.82,35,35,0,0,0,5.43-2c.87-.42,1.6-1.17.94-2.12a.43.43,0,0,0-.48-.2l-3.49,1.3a19,19,0,0,0-2.81,1.06c-.75.43-1.1,1.24-.27,1.8a.43.43,0,0,0,.62-.25c.36-.9,2.29-1.29,3.1-1.6l3-1.15-.48-.62c-.58.92-2,1.37-3,1.76a25.43,25.43,0,0,1-2.66.89.43.43,0,0,0,.23.82Z"/><path class="cls-2" d="M41.11,184.09c1.36.55.89,2.83-.67,2.53a1.3,1.3,0,0,1-1.15-1.35,1.47,1.47,0,0,1,1.82-1.18.43.43,0,0,0,.23-.82,2.34,2.34,0,0,0-2.85,1.68,2.12,2.12,0,0,0,1.73,2.5A2,2,0,0,0,42.7,186a2.33,2.33,0,0,0-1.36-2.7c-.51-.21-.73.62-.23.82Z"/></svg>