<svg id="Capa_1" data-name="Capa 1" xmlns="http://www.w3.org/2000/svg" viewBox="0 0 190.9 211.96"><defs><style>.cls-1{fill:#eaeae8;}.cls-2{fill:#d8d7d4;}.cls-3{fill:#3f3e3d;}.cls-4{fill:#605958;}.cls-5{fill:#ffbb24;}.cls-6{fill:#333;}.cls-7{fill:#fff;}.cls-8{fill:#1a1a1a;}.cls-9{fill:#f2f2f2;}</style></defs><title>stikersanimations</title><path class="cls-1" d="M139.05,169.48l-.17.06a5.37,5.37,0,0,0-1.45.59c-1.4,1-.76,3.3-1.6,4.81-1,1.76-3.46,1.78-5.47,1.6q-6.57-.59-13.18-.8c-4.53-.15-9.4.48-13.88-.07a164.06,164.06,0,0,0-25.07-.84c-3.45.11-7,.26-10.27-.8-6-1.93-7.44-6.8-6.62-12.53.17-1.16.69-2.21.13-3.37A8,8,0,0,0,59.77,156a47.77,47.77,0,0,1-13-23.64,50.22,50.22,0,0,1,1.62-27,6.47,6.47,0,0,1,1.3-2.46,2.4,2.4,0,0,1,2.54-.71c1.52.63,1.44,2.77,2.1,4.28,1.26,2.84,5.14,3.2,7.57,5.15a8.84,8.84,0,0,1,2.94,6,19.09,19.09,0,0,1-.35,6.35,37.34,37.34,0,0,1-1,4.5c2.21-1.95,1.92-5.68,4.2-7.56,1.87-1.54,4.64-1.2,7-.76,8.13,1.46,16.29,2.93,24.55,3.13s16.69-.94,24.12-4.47c2-.94,4.09-2.07,6.24-1.62,1.9.4,3.29,1.94,4.44,3.45,8.36,11,9.72,23.33,9.92,36.62a22.81,22.81,0,0,1-.63,7.06A7.79,7.79,0,0,1,139.05,169.48Z"/><path class="cls-1" d="M138.94,169.07c-1.25.46-1.89.57-2.54,1.69-1.73,3,1.68,4.34-4.8,5.42-1.54.26-3.47-.26-5-.38-8.41-.61-16.83,0-25.21-.79-8.91-.86-17.7-.37-26.62-.55-4.91-.1-10.33-.91-12.43-6a12.15,12.15,0,0,1-.72-5.67c.12-1.43.87-3.23.27-4.73-.75-1.85-2.75-3.19-4-4.66a47.37,47.37,0,0,1-7-10.6,48.51,48.51,0,0,1-4.42-26.71,50.22,50.22,0,0,1,1.34-7q.47-1.76,1.06-3.49,4.63-2.36,5.12,1.12c1.31,1.25,1.73,2.21,3.54,3.16,4.7,2.49,7.35,5.15,7,11a24.88,24.88,0,0,1-1.45,7.55c-.17.39.44.72.71.41a10,10,0,0,0,1.51-2.21c.38-.74.47-1.68.89-2.39,2.91-4.91,5.54-4.06,9.37-3.45,4.43.71,8.83,1.57,13.29,2.13,9.61,1.23,19.57,1.42,28.93-1.44a49.77,49.77,0,0,0,5-1.89c3.09-1.32,3.34-1.78,6.9-.68,3.26,1,3.7,1.48,5.47,4.08a44,44,0,0,1,6.13,13.74,72.15,72.15,0,0,1,2,14c.35,5.94,1.71,15.09-4.51,18.37-.48.26-.06,1,.43.73,4.21-2.22,5.05-6.3,5.18-10.76a90.19,90.19,0,0,0-1.31-18,49.52,49.52,0,0,0-5.06-15c-1.73-3.2-4.4-8.46-8.43-9.27-2.33-.47-4.41.8-6.45,1.68a51.43,51.43,0,0,1-11.64,3.59c-8.41,1.45-17,.83-25.42-.39-4.79-.69-11.13-3.13-16-2.2a5.6,5.6,0,0,0-3.68,2.16c-.88,1.14-.41.71-.65,1.17-.39.74-2.06,7.35-1.59,4.69.66-3.74,1.76-7.49.8-11.3-1.57-6.21-8.13-5.63-10.67-11-.85-1.78-1-4-3.68-3.35-3.74,1-4.46,9.68-4.87,12.4a49.33,49.33,0,0,0,8.39,35.86c1.27,1.78,2.85,3.31,4.14,5.05,2.78,3.74,2.11,6.11,2.41,10.1a9.83,9.83,0,0,0,4.56,8c5.33,3.28,12.88,1.88,18.75,1.84,8.18-.06,16.27,1.21,24.41,1.19,7.7,0,15.47.85,23.13.72,1.73,0,3.48-.24,4.53-1.8,1.4-2.1-.31-4.13,3-5.35C139.68,169.7,139.45,168.88,138.94,169.07Z"/><path class="cls-1" d="M63.42,53.15c8.44-10.7,23.7-14.16,37.42-12.69a46.14,46.14,0,0,1,10.49,2.25c12.23,4.34,21.22,15.62,24.13,28,1.65,7,2.77,15.37,8.54,20.35-.35,1.27-2.47,1.21-2.93,2.44-.39,1,.72,2.05.75,3.16s-1.1,2-1.82,2.92a11.22,11.22,0,0,0-1.37,2.72C132,118.51,115,125.49,98.44,125c-10.11-.33-20-3-29.56-6.26-10-3.35-20.56-7.65-25.34-17.63l-1.73-3.61a2.78,2.78,0,0,1-.37-2.19c.29-.71,1.08-1,1.75-1.4s1.34-1.06,1.13-1.79a2,2,0,0,0-.55-.78L41.33,88.8c7.22-6,7-18,17.53-20.82"/><path class="cls-1" d="M63.72,53.45c12.8-15.39,40.33-17.28,56.21-5.7,8.13,5.93,13.2,14.77,15.43,24.45,1,4.13,1.71,8.34,3.43,12.25a22,22,0,0,0,2.06,3.75c-.93-1.33.74.89.9,1.2a1.66,1.66,0,0,1,.62,2.58l-.9.48c-1.11,2.35-.6,3.82-1.76,6.87a42.57,42.57,0,0,1-6.34,11.12c-5.65,7-14,11.27-22.69,13.06-10.87,2.24-22,.53-32.61-2.41-9.57-2.66-20.47-5.69-28.09-12.38a25.91,25.91,0,0,1-5.37-6.54,7.79,7.79,0,0,1-1.37-5.53q-.77-1.72.27-2.47l.9-.76c0-.45.38-.94.35-1.44-.11-1.42-2.59-1.91-2.24-3.66.17-.82,2.73-3.43,3.2-4.21,1-1.67,1.83-3.43,2.71-5.17C50.88,74.09,53.47,70.1,59,68.38c.52-.16.3-1-.23-.82C48.59,70.73,48.13,82,41,88.5a.43.43,0,0,0,0,.6q2.6,1.72.94,5a3.3,3.3,0,0,0-.82.89c0,.09-.12.18-.12.3,0,2.53,1.62,5.19,2.85,7.33,2.94,5.13,7.53,8.82,12.71,11.54a100.59,100.59,0,0,0,41.87,11.23c10.9.33,22.28-2.49,30.8-9.56,4.53-3.77,7.13-8.21,9.8-13.34,1.18-2.27,2.51-3.6,3.2-5.87.8-2.66-3,1.51.56-3.89-.16.23,1.62-1.44,1.58-1.38a.43.43,0,0,0-.07-.52c-7.84-7.4-6.93-19.09-11.28-28.32a39.36,39.36,0,0,0-18.16-18.76C98.68,36,74.93,38.65,63.12,52.85c-.35.42.25,1,.6.6Z"/><path class="cls-2" d="M73.74,46.67A11.71,11.71,0,0,0,70.87,43c-4-3-10.26,0-14.51-2.66-2.11-1.31-3.56-3.9-6-4.17a4.7,4.7,0,0,0-4.24,2.28,10.74,10.74,0,0,0-1.43,4.81A31.87,31.87,0,0,0,47.8,60.63c3.14,6.33,3.14,6.33,8.85,7.9"/><path class="cls-2" d="M74.11,46.46c-1.4-2.32-2.81-4.23-5.51-5-3.92-1.11-8.33.65-12-1.51-2.14-1.25-3.54-4-6.23-4.23-2.24-.22-4,1.41-5,3.24-3.16,6-.93,15.28,1.69,21.06,2.39,5.29,4,7.38,9.48,8.91a.43.43,0,0,0,.23-.82c-3.83-1.06-5.78-2.23-7.63-5.78-2.63-5-5.81-13.19-4-19q-.35-3.47,4.11-3.44,2.65-3.37,4.39-1.33c.53.28,1,1,1.45,1.33a9.26,9.26,0,0,0,3.64,1.77c5.79,1.31,10.74-1.24,14.64,5.2a.43.43,0,0,0,.73-.43Z"/><path class="cls-2" d="M147.94,40.18a10.94,10.94,0,0,0-3.79-5.28c-1.87-1.25-4.65-1.53-6.45-.15a11.47,11.47,0,0,0-2.35,3.19c-2.51,3.9-6.92,5.88-10.29,8.94a5.15,5.15,0,0,1,.41,2.06,5.17,5.17,0,0,1,.65,3.54l0,.06c2.19,4.59,4.13,9.48,4.58,14.55l1.5,3a15.68,15.68,0,0,0,8.24-.89,13.76,13.76,0,0,0,5.92-6.06A27,27,0,0,0,147.94,40.18Z"/><path class="cls-2" d="M148.31,40c-1.57-3.63-5-8-9.59-6.24-2.32.89-3.19,3.33-4.66,5.13-2.57,3.14-6.22,5.11-9.3,7.72a.42.42,0,0,0-.11.41c.76,2.45.84,4.92,1.81,7.3.86,2.11,1.77,4.1,2.45,6.26s.67,4.62,1.37,6.64c1.32,3.8,2.78,4,7,3.33,13-2.05,14.61-20.63,11.06-30.45-.18-.51-1-.29-.82.23,3,8.35,2.45,19.26-4,26C141,69,134.21,72,131.8,68.37c-1.38-2.09-1.35-5.69-2.08-8-1.31-4.25-6.06-11.26-2.08-15,2.27-2.13,5.07-3.39,7.1-5.86.39-.47,1.2-2,1.66-2.46,6.19-5.77,9.43-.63,11.17,3.38C147.79,40.9,148.53,40.47,148.31,40Z"/><path class="cls-3" d="M63.55,55.72l-8.4-4.33c-1-.52-2.26-1-3.25-.45-1.29.76-.88,2.6-.19,3.85a23.62,23.62,0,0,0,6.75,7.61c.83.6,2,1.16,2.87.53A2.36,2.36,0,0,0,62,61.67l1.83-5.86"/><path class="cls-3" d="M64.09,54.81l-7.14-3.68c-1.39-.71-3.06-1.8-4.71-1.43-3.58.8-1.94,5-.65,7,1.73,2.68,4.74,6.69,8,7.47A2.64,2.64,0,0,0,62.7,62.9c1.12-2,1.53-4.65,2.2-6.8.41-1.31-1.64-1.87-2.05-.57-.46,1.48-1.22,6.72-3.32,6.3-.92-.18-2.08-1.57-2.76-2.22a22.45,22.45,0,0,1-2.52-2.85c-.55-.75-1.7-2-1.82-3q-.55-.73.47-1.19.4-1.13,1.18-.51a7.37,7.37,0,0,1,1.78.87L63,56.64c1.21.63,2.29-1.21,1.07-1.84Z"/><path class="cls-3" d="M129.17,56a17.8,17.8,0,0,0,6.17-7.31A8.9,8.9,0,0,1,136.69,59c-.8,1.42-2.44,2.7-3.94,2.07-2.17-.93-1.35-4.31-2.63-6.28"/><path class="cls-3" d="M129.71,56.91a19.86,19.86,0,0,0,6.55-7.69l-1.67.22c2,2.25,3.26,7,.83,9.44s-3.11,0-3.43-1.74A9.54,9.54,0,0,0,131,54.2c-.66-1.2-2.49-.13-1.84,1.07,1,1.83.51,4.31,2,5.91s3.63,1.19,5.11-.1c3.85-3.37,2.88-9.69-.2-13.15a1.07,1.07,0,0,0-1.67.22,17.76,17.76,0,0,1-5.79,6.93c-1.11.79,0,2.63,1.07,1.84Z"/><path class="cls-4" d="M77.92,113.85a8.41,8.41,0,0,1-1.25-6.36,10.61,10.61,0,0,1,2.49-4.17,16.41,16.41,0,0,1,4.82-4,12.49,12.49,0,0,1,11.64.6,17.52,17.52,0,0,1,7.43,9.3,6.58,6.58,0,0,1,.51,2.83c-.18,1.9-1.7,3.37-3.2,4.55a14.53,14.53,0,0,1-6.11,3.21c-4.54.86-9-2-13.6-2"/><path class="cls-4" d="M61.55,105.34c4.65,2.15,7.59.63,11.78.25,2.48-.22,2.82-2.55,4.58,1.63,2.26,5.37,7.69,9.73,13.5,9.24a10.26,10.26,0,0,0,7.79-5.31,9.34,9.34,0,0,0,1.09-4.76c0-2.29.1-2.28,2.38-1.31a20.72,20.72,0,0,0,8.36,1.61c2.54,0,4.92-.17,7.12-1.53a30.37,30.37,0,0,0,3.75-2.59,30.43,30.43,0,0,0,5.45-6.84c1.27-2,1.22-3.58,1.48-5.8a31,31,0,0,0,.16-7.15,12.47,12.47,0,0,0-3.76-7.93c-3.45-3.05-8.59-3.11-13.16-2.48-6.27.87-12.36,2.73-18.44,4.51-3.52,1-6.09.6-9.56-.17-6-1.32-11.59-5-17.73-4.62A14.11,14.11,0,0,0,57,76.43c-4.71,5-4.9,13.5-3.47,19.83C54.48,100.55,57.56,103.49,61.55,105.34Z"/><path class="cls-4" d="M93.71,100.29q.72-6,2-11.83a16.43,16.43,0,0,0,.7-4.79c-.12-1.75-.49-3.37.35-5.05.95-1.89,3-2.91,5.06-3.52,5.11-1.54,10.52-1.86,15.77-2.69,4.27-.68,8.2,3.29,10.08,6.9a18,18,0,0,1,1.48,11.86,20.33,20.33,0,0,1-22.86,16c-4.46-.63-9-4-12.66-6.49"/><path class="cls-4" d="M64.13,51.67c-.67.82-1.36,2-.73,2.86s1.94.54,2.92.17a98,98,0,0,1,33.22-6.27,35.26,35.26,0,0,1,11.23,1.29c6.63,2.12,11.88,7.34,18.41,9.76a1.49,1.49,0,0,0,1.14.09c.62-.29.56-1.19.36-1.84C128.9,52,123.79,48,118.5,45.24a56.75,56.75,0,0,0-43.81-3.55c-4.07,1.36-8.37,3.58-9.81,7.62"/><path class="cls-5" d="M57,88.94c.38,4.14,4.1,7.79,8.45,9.37s9.17,1.37,13.56.38a5.25,5.25,0,0,0,2.35-1,3.87,3.87,0,0,0,1.08-2.05c.95-3.84.15-9.76-2.69-12.66a28.31,28.31,0,0,0-8.9-6.13c-3.69-1.61-6.64-.72-9.62,1.83A15.37,15.37,0,0,0,57,83.79,7.36,7.36,0,0,0,57,90.16"/><path class="cls-5" d="M55.52,89.34c1.41,8.16,10,11.77,17.52,11.6,2.93-.07,7.47-.15,9.58-2.47s1.89-6.93,1.3-9.89c-1.34-6.78-9.08-13.66-16.11-14-7.73-.37-14.83,8.75-12.3,16,.63,1.81,3.53,1,2.89-.8-1.42-4.06.67-7.52,3.85-10,3.7-2.88,6.77-2.33,10.57-.2,4.45,2.5,7.77,5.77,8.32,11,.3,2.84.46,5.15-2.57,6.66-2.14,1.07-5.74.87-8.12.64-5.51-.52-11-3.5-12-9.34-.33-1.9-3.22-1.09-2.89.8Z"/><path class="cls-5" d="M99.6,93.8a23.81,23.81,0,0,0,9.15,4.86,8.92,8.92,0,0,0,3.58.4,10.24,10.24,0,0,0,3.21-1.18c3-1.53,6-3.3,7.92-5.87,2.45-3.28,2.35-7.1.93-10.78-.69-1.79-1.24-3.21-3-4.11a9.45,9.45,0,0,0-5.58-.82,19,19,0,0,0-7,2.75,16.55,16.55,0,0,0-8.51,14.62"/><path class="cls-5" d="M98.54,94.86a26.47,26.47,0,0,0,9.82,5.25c3.86,1,6.83-.18,10.18-2.13,7-4.06,10.54-10.82,6.72-18.58-3.07-6.25-10.6-5.16-15.83-2.37A19.07,19.07,0,0,0,98.85,93.67c-.08,1.93,2.92,1.93,3,0a15.47,15.47,0,0,1,4.72-11c3.73-3.53,10.69-7.24,14.74-2.79,5.15,5.66,1.6,12.11-4.29,15.54s-11.49,1.29-16.36-2.65c-1.49-1.21-3.62.9-2.12,2.12Z"/><path d="M84.43,103.25c0,1.57,0,3.28,1,4.51s2.54,1.66,4,2a3.26,3.26,0,0,0,1.62.13,2.93,2.93,0,0,0,1.1-.66,14.86,14.86,0,0,0,2.52-2.75,5.28,5.28,0,0,0,1-2.29,2.34,2.34,0,0,0-.87-2.25c-1.18-.8-2.75,0-4.18,0-1.14,0-2.2-.64-3.34-.72s-2.51.81-2.21,1.91"/><path d="M84,103.25c0,3.59,1.07,5.8,4.67,6.79,1.53.42,2.5.52,3.77-.48a11.52,11.52,0,0,0,3.3-4c1.26-2.83-.64-4.51-3.38-4.21a12.68,12.68,0,0,1-4.25-.4,3.57,3.57,0,0,0-1.76,0,2.09,2.09,0,0,0-1.66,2.19c0,.55.87.55.85,0-.09-2.26,4.64-.75,5.84-.8a10.22,10.22,0,0,1,2.16-.29c3.38.68,1.19,3.7.33,4.8-.56.71-1.59,2.16-2.46,2.45a5.37,5.37,0,0,1-3.16-.26c-2.8-.94-3.42-3-3.41-5.78a.43.43,0,0,0-.85,0Z"/><path d="M90.55,109.67a24.45,24.45,0,0,0,.54,4.08"/><path d="M90.12,109.67a27.15,27.15,0,0,0,.55,4.19c.11.54.93.31.82-.23a25.67,25.67,0,0,1-.52-4c0-.54-.88-.55-.85,0Z"/><path class="cls-6" d="M71,44.56a61.35,61.35,0,0,1,53.64,4.81,1.5,1.5,0,0,0,1.51-2.59,64.24,64.24,0,0,0-55.95-5.12c-1.79.68-1,3.58.8,2.89Z"/><path class="cls-6" d="M127.81,47.93c2.05-3.18,5.72-4.58,8.11-7.44,2.13-2.55,3.32-7.37,8.47-3.36,2.22,1.73,3.08,5.16,3.38,7.76,1.09,9.57-2.18,24.37-14.23,24.21a1.5,1.5,0,0,0,0,3c15,.19,20.59-20.19,16.21-32-1.53-4.14-6-9.08-10.89-7.15-3,1.18-4.06,4.62-6.25,6.73-2.53,2.43-5.44,3.72-7.39,6.74-1,1.63,1.55,3.13,2.59,1.51Z"/><path class="cls-6" d="M134.62,71.63A62,62,0,0,0,138,84.15a25.92,25.92,0,0,0,2.78,5,16.09,16.09,0,0,1,1.09,1.4q1.73.88.49,1.3a12,12,0,0,0-2.35,1.71c-1.54,1.13,0,3.73,1.51,2.59,2.76-2,5.49-3.38,3.41-6.68-1.93-3.06-3.91-5.4-5.12-9a75.14,75.14,0,0,1-2.36-9.71c-.37-1.89-3.27-1.09-2.89.8Z"/><path class="cls-6" d="M46.89,107.14a15.12,15.12,0,0,1-5-11.76c0-1.93-3-1.93-3,0a18.1,18.1,0,0,0,5.92,13.88c1.42,1.3,3.55-.81,2.12-2.12Z"/><path class="cls-6" d="M139.31,97.23a10.6,10.6,0,0,0,4.18,2.33l-.9-2.2c-8.2,11.52-17.53,21.08-31.75,24.28a70.31,70.31,0,0,1-44-4.73c-1.75-.78-3.28,1.81-1.51,2.59,14.61,6.48,30.62,8.55,46.29,5,15-3.36,24.89-13.5,33.54-25.66a1.51,1.51,0,0,0-.9-2.2l-2.86-1.56c-1.45-1.26-3.58.85-2.12,2.12Z"/><path class="cls-6" d="M41.48,96.11a14.24,14.24,0,0,0,3.83-3.65c.75-1-.3-2.14-1.3-2.26a3.26,3.26,0,0,1-2.37-1.58C40.62,87,38,88.5,39,90.14a6.46,6.46,0,0,0,5,3.06l-1.3-2.26A10.32,10.32,0,0,1,40,93.52c-1.61,1-.11,3.64,1.51,2.59Z"/><path class="cls-6" d="M55.89,67.24a28.8,28.8,0,0,0-8.3,8.81c-2.31,3.66-3.77,8.94-8,10.82-1.76.79-.23,3.37,1.51,2.59C44.38,88,46,85.08,47.65,82c2.5-4.7,5.24-9.18,9.75-12.2,1.6-1.07.1-3.67-1.51-2.59Z"/><path class="cls-6" d="M56.91,68.46C49.23,63,42.63,52.21,45.75,42.4,48,35.33,52.41,39.29,56.92,41c2.62,1,9.29,1.15,10.43,3.64.8,1.75,3.39.23,2.59-1.51-1.25-2.74-2.57-2.56-5.52-3.16a42.22,42.22,0,0,1-10.21-3.52c-3.74-1.8-8.12-2.59-10.39,1.77-2.74,5.25-1.86,13.22.1,18.5A30.82,30.82,0,0,0,55.39,71c1.58,1.12,3.08-1.48,1.51-2.59Z"/><path d="M90.41,115c3.9-1.53,8.95,0,10.2-5.22.13-.53-.69-.76-.82-.23-1.13,4.66-6.1,3.25-9.6,4.62-.5.2-.28,1,.23.82Z"/><path d="M92.06,114.13a2.79,2.79,0,0,1-1.47.08l-.11.84q1,0,2-.07c.54,0,.55-.89,0-.85s-1.36.07-2,.07a.43.43,0,0,0-.11.84,3.67,3.67,0,0,0,1.93-.08c.52-.17.3-1-.23-.82Z"/><path class="cls-7" d="M105.56,90a2.94,2.94,0,0,0,2-2.52.74.74,0,0,0-.08-.46.73.73,0,0,0-.45-.27,2.21,2.21,0,0,0-2.45.94A1.72,1.72,0,0,0,105.3,90"/><path class="cls-7" d="M62.83,89a3,3,0,0,0,2.52-.59,1.78,1.78,0,0,0,.27-2.4c-.75-.85-2.23-.47-3,.39a1.63,1.63,0,0,0-.45,1.15.83.83,0,0,0,.82.79"/><path class="cls-8" d="M85.54,84.11c-7.37-4.44-16.6-3.9-25.18-3.22-2.7.21-5.75.62-7.31,2.84-1.3,1.84-1.09,4.31-.74,6.53q.58,3.65,1.5,7.24a5,5,0,0,0,1,2.24A5,5,0,0,0,57.69,101a62.36,62.36,0,0,0,16.48.84c3.82-.31,8-1.19,10.34-4.22S86.64,90,86.21,86"/><path class="cls-8" d="M86.08,83.19c-8.17-4.52-18.32-4.51-27.36-3.2C49,81.4,50.15,90.92,53,98.37c1.26,3.33,3.81,3.58,7.16,4.06a58.19,58.19,0,0,0,15.63.27c9.7-1.27,12.42-7.59,11.52-16.65-.13-1.35-2.26-1.36-2.13,0,.31,3.14.78,6.85-.77,9.76-2.11,4-7.12,4.7-11.13,5a59.2,59.2,0,0,1-9.18-.06c-5-.4-8-.34-9.66-5.33-1.45-4.23-2.06-9.92,2.16-12.83,1.84-1.27,6.43-.86,8.68-1,6.87-.34,13.62,0,19.76,3.41,1.2.66,2.27-1.17,1.07-1.84Z"/><path class="cls-8" d="M87.5,90.9a7.44,7.44,0,0,1,9.37-2.61,8,8,0,0,0-9.76-.65"/><path class="cls-8" d="M88.79,91.66a6,6,0,0,1,7.31-2.08c1.42.66,3.21-1.16,1.82-2.36a9.65,9.65,0,0,0-11.58-.89c-1.62,1-.11,3.64,1.51,2.59a6.6,6.6,0,0,1,7.95.42L97.62,87A9.06,9.06,0,0,0,86.2,90.15c-1.08,1.6,1.51,3.11,2.59,1.51Z"/><path class="cls-8" d="M96.7,88.6a4,4,0,0,1,.23-4,8.08,8.08,0,0,1,3.16-2.75c6.85-3.7,15.31-1.9,23.17-2,2.07,0,4.53,0,5.66,1.67.8,1.18.57,2.73.27,4.1a67,67,0,0,1-3.1,10.14,6.64,6.64,0,0,1-5.94,5.22,36.57,36.57,0,0,1-9.78.58,16.57,16.57,0,0,1-5.3-1.13c-5.12-2.19-7.5-7.87-8.64-13.15"/><path class="cls-8" d="M97.73,88.32c-2.63-8.38,14.39-7.75,18.71-7.56,2.09.09,6.17-.55,8.1.23l3.63,4.42q-.28,1.3-.63,2.57c-.38,1.43-.79,2.84-1.26,4.24-1.22,3.65-2.45,6.55-6.41,7.8a25.33,25.33,0,0,1-8.68.59c-8.42-.53-12-6-13.73-13.53-.31-1.33-2.36-.77-2.05.57,2.22,9.48,7.33,15.07,17.41,15.14,3.44,0,8.47,0,11.37-2.19,3.51-2.67,4.66-8.94,5.62-12.9.72-3,1.49-6.4-1.71-8.09-3.56-1.87-9.51-.92-13.39-1.06-5.8-.2-22.11.54-19,10.33.41,1.3,2.46.75,2.05-.57Z"/><path class="cls-8" d="M50.84,90.5l-7.83-7q3.47,1.77,6.89,3.59a53.92,53.92,0,0,0-6.18-5.05l-.4.91"/><path class="cls-8" d="M51.9,89.44l-7.83-7-1.82,2.36q3.46,1.77,6.89,3.59c1.46.78,3.1-1.15,1.82-2.36a61.08,61.08,0,0,0-6.48-5.29,1.5,1.5,0,0,0-2.05.54l-.4.91c-.77,1.75,1.81,3.28,2.59,1.51l.4-.91L43,83.36a55.43,55.43,0,0,1,5.87,4.82l1.82-2.36Q47.22,84,43.76,82.22c-1.44-.74-3.15,1.16-1.82,2.36l7.83,7c1.44,1.28,3.57-.83,2.12-2.12Z"/><path class="cls-8" d="M129.33,90.25a21.46,21.46,0,0,1,10.86-9.82,38,38,0,0,0-9.7,9.7,24.76,24.76,0,0,1,10.11-8.2,27.29,27.29,0,0,0-11.52,7.63"/><path class="cls-8" d="M130.63,91a20.79,20.79,0,0,1,10.32-9.28l-1.51-2.59A41.92,41.92,0,0,0,129.2,89.38c-1.11,1.6,1.47,3,2.59,1.51a24.32,24.32,0,0,1,9.57-7.66c1.53-.71.44-3.32-1.16-2.74a29.91,29.91,0,0,0-12.18,8c-1.29,1.43.83,3.56,2.12,2.12A26.77,26.77,0,0,1,141,83.38l-1.16-2.74a27.26,27.26,0,0,0-10.65,8.74l2.59,1.51a37.69,37.69,0,0,1,9.16-9.17,1.5,1.5,0,0,0-1.51-2.59A23.33,23.33,0,0,0,128,89.49c-.9,1.71,1.69,3.23,2.59,1.51Z"/><path class="cls-9" d="M62.78,83.54a10.63,10.63,0,0,0-5.66.47,2.23,2.23,0,0,0-.84.48,2.42,2.42,0,0,0-.46.8c-.8,2-1.45,4.23-.48,6.11,1.24-2.12,1.32-3,3.78-5.12.39-.33,2.64-2,3.09-2.21a5.44,5.44,0,0,1,2.4-.48"/><path class="cls-9" d="M62.89,83.13c-2-.32-5.74-.54-7.12,1.34A7.84,7.84,0,0,0,55,91.62a.43.43,0,0,0,.73,0c1.9-3.31,4.7-7.36,8.91-7.6.54,0,.55-.88,0-.85-4.56.26-7.57,4.41-9.64,8h.73a7.09,7.09,0,0,1,.67-6.1c1.15-1.63,4.58-1.4,6.29-1.13.54.09.77-.73.23-.82Z"/><path class="cls-9" d="M108.93,82.62A10.78,10.78,0,0,0,102.17,84a2.8,2.8,0,0,0-.94.79,3,3,0,0,0-.4,1.61,8.11,8.11,0,0,0,1.51,4.88,10.21,10.21,0,0,1,1.4-4.28,7.66,7.66,0,0,1,1.53-1.51c2-1.56,4.32-2.78,6.75-2.59"/><path class="cls-9" d="M108.93,82.19c-2.38-.2-6.51.15-8,2.38-1.35,2-.06,5.22,1.08,7,.18.28.71.28.78-.1.45-2.57,1.17-4.43,3.33-6A9.65,9.65,0,0,1,112,83.36a.43.43,0,0,0,0-.85,10.74,10.74,0,0,0-7,2.65c-2.06,1.64-2.68,3.51-3.12,6l.78-.1c-1.35-2.07-2.41-5.09,0-6.88,1.64-1.21,4.28-1.34,6.2-1.17.55,0,.54-.8,0-.85Z"/><path d="M83.6,112.07a7.15,7.15,0,0,0,7.73,2.83.43.43,0,0,0-.23-.82,6.27,6.27,0,0,1-6.77-2.44c-.32-.44-1.06,0-.73.43Z"/><path d="M93.22,114a5.55,5.55,0,0,1-2.9.21c-.53-.1-.76.71-.23.82a6.43,6.43,0,0,0,3.35-.21c.52-.17.29-1-.23-.82Z"/><path class="cls-6" d="M63.61,158.64c-10-7.88-18-19-18.48-32.17a47,47,0,0,1,4.26-20.23c.87-2,4-8.24,5.26-4.12.4,1.26-.28,3.35-.49,4.61a1.55,1.55,0,0,0,.69,1.69c5.48,2.74,10.46,7.63,7.15,14-1.09,2.11-3.28,3.73-3.22,6.26.13,5.56,7.38,12.08,11.27,15.2,1.49,1.2,3.63-.91,2.12-2.12-3.39-2.72-7.64-6.4-9.24-10.56s2.34-7.1,3.13-11.28c1.26-6.61-4.33-11.43-9.69-14.11l.69,1.69c.47-2.89,1.9-8.78-1.84-10.14-6.41-2.34-10,10.78-11.09,14.67-5.5,19.06,2.13,36.75,17.37,48.7,1.5,1.18,3.64-.93,2.12-2.12Z"/><path class="cls-6" d="M126.75,117.87c7.16,6.5,11.89,13.66,14,23.16,1.63,7.52,4.69,23.32-2.7,28.44-1.58,1.09-.08,3.69,1.51,2.59,8.19-5.68,6.12-18.37,4.93-26.91a46.48,46.48,0,0,0-15.58-29.41c-1.43-1.3-3.55.82-2.12,2.12Z"/><path class="cls-6" d="M129.12,141.13c1.41,1.66,1.68,4.8,2.23,6.88.74,2.77,1.41,5.55,2,8.35,1.25,6,3.14,13.07.4,18.88-.82,1.74,1.77,3.26,2.59,1.51,2.92-6.2,1.53-12.9.26-19.38-.77-3.94-1.8-7.81-2.78-11.7-.62-2.46-.9-4.7-2.59-6.67-1.26-1.47-3.37.66-2.12,2.12Z"/><path class="cls-6" d="M60.63,159.35A41.84,41.84,0,0,0,61,174.05c.39,1.89,3.28,1.09,2.89-.8a37.55,37.55,0,0,1-.39-13.11c.28-1.89-2.61-2.7-2.89-.8Z"/><path class="cls-7" d="M78,178.45q2.25-13.47,5.77-26.63c.75-2.82,1.61-5.73,3.43-7.85,2.13-2.48,5.25-3.5,8.23-4.33,5.58-1.55,12.21-2.49,16.44,1.86a19.29,19.29,0,0,1,3.66,6.45A119.78,119.78,0,0,1,121.69,169c.81,4.15,1.38,8.64-.17,12.51a3,3,0,0,1-3.12,2.22c-8.53.78-17.09,1.57-25.63,1-4.61-.31-9.33-1.08-13.32-3.67"/><path class="cls-8" d="M140.58,83c-.12.1,0,0,.07,0-.15.06,0,0,.07,0s.22,0,.05,0a1.68,1.68,0,0,0,.91-.32,2.21,2.21,0,0,0,.64-2.18l-2.89.8.15.88,2.74-1.16-.94-1.82a1.5,1.5,0,1,0-2.59,1.51l.94,1.82a1.49,1.49,0,0,0,1.87.61,1.53,1.53,0,0,0,.87-1.77l-.15-.88a1.51,1.51,0,0,0-1.85-1,1.54,1.54,0,0,0-1,1.85l.05-.55,1.3-.74a3.71,3.71,0,0,0-2.31.94,1.51,1.51,0,0,0,0,2.12,1.53,1.53,0,0,0,2.12,0Z"/><path class="cls-8" d="M128.67,89.6l-.15.46A1.51,1.51,0,0,0,131,91.52l.41-.42A1.5,1.5,0,0,0,129.33,89l-1,.82a1.52,1.52,0,0,0,0,2.12l.08.09-.39-.66.11-.71,1.69-.69-.45-.09a1.5,1.5,0,1,0-.8,2.89l.45.09a1.57,1.57,0,0,0,1.69-.69,1.9,1.9,0,0,0-.27-2.35v2.12l1-.82L129.33,89l-.41.42,2.51,1.46.15-.46a1.51,1.51,0,0,0-1-1.85,1.53,1.53,0,0,0-1.85,1Z"/><path class="cls-8" d="M49.34,89.12a6.22,6.22,0,0,0,.8,2.74l-.2-.76v.12l.74-1.3-.05,0h1.51l-.06,0,.54.54,0,0v1.51l0,0a1.51,1.51,0,0,0-.54-2.05,1.53,1.53,0,0,0-2.05.54l0,0a1.46,1.46,0,0,0,0,1.51,1.62,1.62,0,0,0,1.78.76,1.58,1.58,0,0,0,1.16-1.53,1.9,1.9,0,0,0-.26-.95s-.23-.41-.14-.22a3.38,3.38,0,0,1-.15-.47q-.05-.28,0-.08,0-.16,0-.33a1.5,1.5,0,0,0-3,0Z"/><path class="cls-8" d="M54,81.55q-1.43.64-2.79,1.41a1.51,1.51,0,0,0,0,2.59l1.07.6c1.69.94,3.2-1.65,1.51-2.59L52.7,83v2.59q1.36-.77,2.79-1.41A1.51,1.51,0,0,0,56,82.09,1.54,1.54,0,0,0,54,81.55Z"/><path class="cls-8" d="M127,82.66a1.81,1.81,0,0,1,1.66.44l-.39-.66.05-.29-.25.46-.42.77-.84,1.54c-.92,1.7,1.67,3.21,2.59,1.51.45-.82.9-1.64,1.34-2.47a2.73,2.73,0,0,0,.42-2.33c-.55-1.55-2.69-2.14-4.17-2a1.54,1.54,0,0,0-1.5,1.5,1.51,1.51,0,0,0,1.5,1.5Z"/><path class="cls-6" d="M57.82,106.63a15.45,15.45,0,0,0-5.25-.83,1.5,1.5,0,0,0,0,3,12.9,12.9,0,0,1,4.45.72c1.83.63,2.62-2.27.8-2.89Z"/></svg>