<svg  height="56px" xmlns="http://www.w3.org/2000/svg" width="" color="#000000"
                                class="sc-bdfBwQ iksKBI">
                                <g id="Layer_7">
                                    <rect x="20.084" y="2.757" fill="#F7C519" width="15.831" height="50.909"></rect>
                                    <rect x="16.095" y="4.59" fill="#F7C519" width="23.125" height="47.281"></rect>
                                    <rect x="12.996" y="6.475" fill="#F7C519" width="30.008" height="43.475"></rect>
                                    <rect x="9.695" y="8.359" fill="#F7C519" width="36.609" height="39.707"></rect>
                                    <rect x="8.159" y="9.917" fill="#F7C519" width="39.684" height="36.588"></rect>
                                    <rect x="5.912" y="13.559" fill="#F7C519" width="45.756" height="26.474"></rect>
                                    <rect x="2.46" y="20.16" fill="#F7C519" width="51.08" height="16.104"></rect>
                                    <rect x="37.833" y="3.673" fill="#F7C519" width="1.976" height="5.303"></rect>
                                    <rect x="39.046" y="6.136" fill="#F7C519" width="3.597" height="1.276"></rect>
                                    <rect x="34.074" y="4.443" fill="#F7C519" width="4.676" height="1.109"></rect>
                                    <rect x="41.621" y="7.5" fill="#F7C519" width="4.336" height="2.076"></rect>
                                    <rect x="46.826" y="12.383" fill="#F7C519" width="2.899" height="2.039"></rect>
                                    <rect x="46.305" y="38.148" fill="#F7C519" width="3.782" height="4.717"></rect>
                                    <rect x="45.557" y="39.551" fill="#F7C519" width="2.633" height="6.631"></rect>
                                    <rect x="19.96" y="51.407" fill="#F7C519" width="1.647" height="2.332"></rect>
                                    <rect x="13.359" y="49.227" fill="#F7C519" width="3.206" height="1.377"></rect>
                                    <rect x="10.042" y="46.919" fill="#F7C519" width="4.732" height="2.025"></rect>
                                    <rect x="6.274" y="39.18" fill="#F7C519" width="2.563" height="4.878"></rect>
                                    <rect x="4.39" y="35.473" fill="#F7C519" width="2.5" height="4.848"></rect>
                                    <rect x="4.028" y="32.164" fill="#F7C519" width="2.164" height="4.579"></rect>
                                    <rect x="3.688" y="18.428" fill="#F7C519" width="3.175" height="3.827"></rect>
                                    <rect x="5.275" y="15.478" fill="#F7C519" width="3.653" height="2.432"></rect>
                                    <rect x="7.101" y="12.544" fill="#F7C519" width="3.919" height="2.431"></rect>
                                    <rect x="9.061" y="9.057" fill="#F7C519" width="5.715" height="3.201"></rect>
                                    <rect x="11.919" y="6.82" fill="#F7C519" width="7.543" height="3.278"></rect>
                                    <rect x="16.154" y="5.676" fill="#F7C519" width="6.313" height="2.253"></rect>
                                    <rect x="19.193" y="3.673" fill="#F7C519" width="7.708" height="4.078"></rect>
                                </g>
                                <g id="Layer_2">
                                    <rect x="20.084" y="0.776" fill="#122216" width="15.956" height="1.981"></rect>
                                    <rect x="16.778" y="2.757" fill="#122216" width="3.306" height="1.833"></rect>
                                    <rect x="12.996" y="4.59" fill="#122216" width="3.782" height="1.884"></rect>
                                    <rect x="9.695" y="6.475" fill="#122216" width="3.301" height="1.884"></rect>
                                    <rect x="7.811" y="8.359" fill="#122216" width="1.884" height="1.884"></rect>
                                    <rect x="5.912" y="10.243" fill="#122216" width="1.898" height="3.315"></rect>
                                    <rect x="4.331" y="13.559" fill="#122216" width="1.581" height="2.833"></rect>
                                    <rect x="2.46" y="16.392" fill="#122216" width="1.871" height="3.769"></rect>
                                    <rect x="0.576" y="20.16" fill="#122216" width="1.884" height="6.438"></rect>
                                    <rect x="0.576" y="20.16" fill="#122216" width="1.884" height="6.438"></rect>
                                    <rect x="20.084" y="0.776" fill="#122216" width="15.956" height="1.981"></rect>
                                    <rect x="20.084" y="2.757" fill="#DFD793" width="15.956" height="1.833"></rect>
                                    <rect x="16.778" y="4.59" fill="#DFD793" width="3.306" height="1.884"></rect>
                                    <rect x="12.996" y="6.475" fill="#DFD793" width="3.782" height="1.838"></rect>
                                    <rect x="9.679" y="8.382" fill="#DFD793" width="3.317" height="1.838"></rect>
                                    <rect x="7.827" y="10.285" fill="#DFD793" width="1.852" height="3.233"></rect>
                                    <rect x="5.912" y="13.493" fill="#DFD793" width="1.898" height="2.897"></rect>
                                    <rect x="4.088" y="16.438" fill="#DFD793" width="1.824" height="3.675"></rect>
                                    <rect x="2.552" y="20.16" fill="#DFD793" width="1.838" height="15.955"></rect>
                                    <rect x="16.778" y="2.757" fill="#122216" width="3.306" height="1.833"></rect>
                                    <rect x="12.996" y="4.59" fill="#122216" width="3.782" height="1.884"></rect>
                                    <rect x="9.695" y="6.475" fill="#122216" width="3.301" height="1.884"></rect>
                                    <rect x="7.811" y="8.359" fill="#122216" width="1.884" height="1.884"></rect>
                                    <rect x="5.912" y="10.243" fill="#122216" width="1.898" height="3.315"></rect>
                                    <rect x="4.331" y="13.559" fill="#122216" width="1.581" height="2.833"></rect>
                                    <rect x="2.46" y="16.392" fill="#122216" width="1.871" height="3.769"></rect>
                                    <rect x="0.576" y="20.16" fill="#122216" width="1.884" height="6.438"></rect>
                                </g>
                                <g id="Layer_3">
                                    <rect x="0.576" y="20.16" fill="#122216" width="1.981" height="15.955"></rect>
                                    <rect x="2.557" y="36.115" fill="#122216" width="1.833" height="3.308"></rect>
                                    <rect x="4.39" y="39.423" fill="#122216" width="1.885" height="3.782"></rect>
                                    <rect x="6.274" y="43.205" fill="#122216" width="1.884" height="3.301"></rect>
                                    <rect x="8.159" y="46.506" fill="#122216" width="1.884" height="1.884"></rect>
                                    <rect x="10.042" y="48.39" fill="#122216" width="3.315" height="1.897"></rect>
                                    <rect x="13.359" y="50.287" fill="#122216" width="2.833" height="1.584"></rect>
                                    <rect x="16.191" y="51.871" fill="#122216" width="3.769" height="1.868"></rect>
                                    <rect x="20.271" y="53.859" fill="#122216" width="6.278" height="1.837"></rect>
                                </g>
                                <g id="Layer_4">
                                    <rect x="19.96" y="53.666" fill="#122216" width="15.955" height="1.981"></rect>
                                    <rect x="35.915" y="51.833" fill="#122216" width="3.307" height="1.833"></rect>
                                    <rect x="39.222" y="49.949" fill="#122216" width="3.782" height="1.884"></rect>
                                    <rect x="43.004" y="48.065" fill="#122216" width="3.301" height="1.884"></rect>
                                    <rect x="46.305" y="46.182" fill="#122216" width="1.885" height="1.884"></rect>
                                    <rect x="48.189" y="42.865" fill="#122216" width="1.897" height="3.314"></rect>
                                    <rect x="50.087" y="40.033" fill="#122216" width="1.583" height="2.833"></rect>
                                    <rect x="51.67" y="36.264" fill="#122216" width="1.87" height="3.77"></rect>
                                    <rect x="53.54" y="29.826" fill="#122216" width="1.884" height="6.438"></rect>
                                </g>
                                <g id="Layer_5">
                                    <rect x="53.443" y="20.307" fill="#122216" width="1.98" height="15.956"></rect>
                                    <rect x="51.609" y="17.002" fill="#122216" width="1.834" height="3.306"></rect>
                                    <rect x="49.726" y="13.22" fill="#122216" width="1.884" height="3.782"></rect>
                                    <rect x="47.843" y="9.917" fill="#122216" width="1.883" height="3.302"></rect>
                                    <rect x="45.955" y="8.034" fill="#122216" width="1.886" height="1.884"></rect>
                                    <rect x="42.643" y="6.136" fill="#122216" width="3.313" height="1.898"></rect>
                                    <rect x="39.809" y="4.554" fill="#122216" width="2.834" height="1.582"></rect>
                                    <rect x="36.04" y="2.684" fill="#122216" width="3.77" height="1.871"></rect>
                                    <rect x="29.603" y="0.799" fill="#122216" width="6.438" height="1.885"></rect>
                                </g>
                                <g id="Pepe">
                                    <polygon fill="#5C8E3E"
                                        points="14.378,16.107 14.366,27.174 15.921,27.174 15.921,34.114 14.061,34.114 14.061,38.32  15.921,38.32 16.095,40.038 17.759,40.146 17.759,43.793 20.992,43.793 20.992,45.658 26.518,45.658 26.518,47.469 33.372,47.469  33.372,45.645 36.483,45.631 36.483,43.793 38.335,43.793 38.335,41.956 40.173,41.956 40.173,40.132 42.011,40.132 42.011,36.952  40.24,36.952 40.227,35.062 43.835,35.062 43.835,31.828 42.319,31.828 42.306,29.562 37.235,29.871 37.061,28.019 35.049,28.019  35.049,26.208 33.292,26.208 33.292,24.653 30.649,24.612 30.529,27.979 29.106,27.979 29.106,29.803 26.397,29.803 26.397,31.708  21.286,31.708 21.286,29.857 19.489,29.857 19.489,28.046 17.624,28.046 17.624,26.222 16.404,24.868 15.747,23.553 14.941,23.553  15.332,22.43 16.404,22.063 16.31,21.163 17.665,20.736 17.665,19.595 19.677,19.595 19.677,17.758 22.762,17.758 23.222,17.597  25.7,17.624 26.492,17.758 28.047,19.288 28.651,19.302 28.838,20.736 31.065,22.117 33.306,22.117 33.306,21.071 35.129,21.071  35.129,19.354 36.913,19.354 36.913,17.516 41.26,17.516 41.26,14.539 39.408,14.539 39.408,12.687 37.731,12.768 37.691,10.957  32.661,10.957 32.527,12.647 30.932,12.647 30.932,14.552 29.12,14.552 29.12,12.674 27.31,12.674 27.31,10.957 19.529,10.957  19.529,12.674 17.813,12.674 17.813,14.391 16.095,14.391 16.095,16.107 	">
                                    </polygon>
                                    <rect x="17.813" y="10.957" fill="#122216" width="3.031" height="1.717"></rect>
                                    <rect x="16.095" y="12.674" fill="#122216" width="1.717" height="1.717"></rect>
                                    <rect x="14.378" y="14.391" fill="#122216" width="1.717" height="1.717"></rect>
                                    <rect x="14.378" y="27.174" fill="#122216" width="1.717" height="6.94"></rect>
                                    <rect x="10.126" y="23.918" fill="#122216" width="2.021" height="4.33"></rect>
                                    <rect x="12.662" y="34.114" fill="#122216" width="1.717" height="4.206"></rect>
                                    <rect x="14.378" y="38.32" fill="#122216" width="1.717" height="1.718"></rect>
                                    <rect x="20.992" y="45.511" fill="#122216" width="5.526" height="1.718"></rect>
                                    <rect x="33.372" y="45.511" fill="#122216" width="3.111" height="1.718"></rect>
                                    <rect x="36.483" y="43.793" fill="#122216" width="1.838" height="1.718"></rect>
                                    <rect x="38.302" y="41.956" fill="#122216" width="1.839" height="1.837"></rect>
                                    <rect x="40.141" y="40.108" fill="#122216" width="1.838" height="1.838"></rect>
                                    <rect x="40.141" y="35.062" fill="#122216" width="3.675" height="1.891"></rect>
                                    <rect x="37.061" y="27.523" fill="#122216" width="7.747" height="2.471"></rect>
                                    <rect x="35.049" y="25.806" fill="#122216" width="11.522" height="2.297"></rect>
                                    <rect x="33.292" y="23.918" fill="#122216" width="13.279" height="2.293"></rect>
                                    <rect x="10.126" y="21.916" fill="#122216" width="36.445" height="2.917"></rect>
                                    <rect x="33.292" y="20.538" fill="#122216" width="13.279" height="1.892"></rect>
                                    <rect x="35.129" y="18.655" fill="#122216" width="9.658" height="2.508"></rect>
                                    <rect x="36.913" y="16.764" fill="#122216" width="6.184" height="2.523"></rect>
                                    <rect x="37.168" y="20.538" fill="#E6E9D5" width="5.929" height="1.892"></rect>
                                    <rect x="40.079" y="24.321" fill="#E6E9D5" width="2.817" height="1.891"></rect>
                                    <rect x="15.948" y="23.981" fill="#122216" width="14.929" height="2.23"></rect>
                                    <rect x="15.948" y="22.43" fill="#122216" width="14.929" height="1.891"></rect>
                                    <rect x="15.948" y="20.538" fill="#122216" width="14.929" height="1.892"></rect>
                                    <rect x="17.352" y="18.655" fill="#122216" width="11.741" height="2.508"></rect>
                                    <rect x="19.006" y="16.764" fill="#122216" width="8.397" height="2.523"></rect>
                                    <rect x="21.475" y="20.538" fill="#E6E9D5" width="5.929" height="1.892"></rect>
                                    <rect x="24.385" y="24.321" fill="#E6E9D5" width="2.817" height="1.891"></rect>
                                    <rect x="19.489" y="27.818" fill="#122216" width="9.598" height="2.176"></rect>
                                    <rect x="21.286" y="28.749" fill="#122216" width="5.111" height="3.137"></rect>
                                    <rect x="17.624" y="25.806" fill="#122216" width="13.227" height="2.297"></rect>
                                    <rect x="41.979" y="36.725" fill="#122216" width="1.838" height="3.384"></rect>
                                    <rect x="43.815" y="31.904" fill="#122216" width="1.838" height="3.157"></rect>
                                    <rect x="41.979" y="28.749" fill="#122216" width="1.838" height="3.156"></rect>
                                    <rect x="31.99" y="27.818" fill="#122216" width="1.838" height="1.897"></rect>
                                    <rect x="29.087" y="12.674" fill="#122216" width="1.84" height="5.986"></rect>
                                    <rect x="30.448" y="14.867" fill="#122216" width="2.314" height="1.896"></rect>
                                    <rect x="27.31" y="14.867" fill="#122216" width="1.839" height="1.896"></rect>
                                    <rect x="20.843" y="12.674" fill="#122216" width="6.465" height="2.193"></rect>
                                    <rect x="27.31" y="10.957" fill="#122216" width="1.839" height="1.717"></rect>
                                    <rect x="37.572" y="10.957" fill="#122216" width="1.838" height="1.896"></rect>
                                    <rect x="39.408" y="12.853" fill="#122216" width="1.839" height="1.896"></rect>
                                    <rect x="41.247" y="14.75" fill="#122216" width="1.838" height="2.579"></rect>
                                    <rect x="30.927" y="10.957" fill="#122216" width="1.837" height="1.717"></rect>
                                    <rect x="19.006" y="14.867" fill="#122216" width="1.838" height="1.896"></rect>
                                    <rect x="36.913" y="14.867" fill="#122216" width="1.838" height="2.461"></rect>
                                    <rect x="32.763" y="16.764" fill="#122216" width="1.838" height="1.896"></rect>
                                    <rect x="32.763" y="12.971" fill="#122216" width="4.15" height="1.896"></rect>
                                    <rect x="30.152" y="29.696" fill="#122216" width="1.838" height="1.896"></rect>
                                    <rect x="28.349" y="31.592" fill="#122216" width="1.838" height="1.897"></rect>
                                    <rect x="17.195" y="35.06" fill="#122216" width="1.838" height="1.896"></rect>
                                    <rect x="23.097" y="43.026" fill="#122216" width="1.838" height="1.896"></rect>
                                    <rect x="33.372" y="43.026" fill="#122216" width="1.838" height="1.896"></rect>
                                    <rect x="23.842" y="33.489" fill="#122216" width="4.507" height="1.896"></rect>
                                    <rect x="19.033" y="36.952" fill="#122216" width="5.942" height="1.897"></rect>
                                    <rect x="35.531" y="36.863" fill="#122216" width="4.609" height="1.896"></rect>
                                    <rect x="24.975" y="38.85" fill="#122216" width="10.556" height="1.896"></rect>
                                    <rect x="26.296" y="41.129" fill="#122216" width="5.942" height="1.897"></rect>
                                    <rect x="24.975" y="41.129" fill="#122216" width="8.397" height="1.897"></rect>
                                    <rect x="33.828" y="29.696" fill="#122216" width="1.838" height="1.896"></rect>
                                    <rect x="35.666" y="31.592" fill="#122216" width="3.273" height="1.897"></rect>
                                    <rect x="26.518" y="47.229" fill="#122216" width="6.854" height="1.716"></rect>
                                    <rect x="17.813" y="43.793" fill="#122216" width="3.179" height="1.718"></rect>
                                    <rect x="16.095" y="40.038" fill="#122216" width="1.717" height="3.755"></rect>
                                    <rect x="12.662" y="16.107" fill="#122216" width="1.717" height="11.066"></rect>
                                    <rect x="32.763" y="9.24" fill="#122216" width="4.81" height="1.717"></rect>
                                    <rect x="20.843" y="9.24" fill="#122216" width="6.465" height="1.717"></rect>
                                </g><text x="60" y="35" height="100" font-size="20px" fill="#000000"> Super Pepe
                                    Bros</text>
                            </svg>