<?xml version="1.0" encoding="UTF-8"?>
<svg width="3441px" height="153px" viewBox="0 0 3441 153" version="1.1" xmlns="http://www.w3.org/2000/svg" xmlns:xlink="http://www.w3.org/1999/xlink">
    <title>what-we-do-wave</title>
    <g id="Page-1" stroke="none" stroke-width="1" fill="none" fill-rule="evenodd">
        <g id="what-we-do-wave" fill="#1C1C1C" fill-rule="nonzero">
            <path d="M3333.2,5.1 C3305.9,7.6 3280.1,10 3227.3,10 C3174.5,10 3148.7,7.6 3121.4,5.1 C3094.3,2.6 3066.4,0 3011.1,0 C2955.8,0 2927.9,2.6 2900.9,5.1 C2873.6,7.6 2847.8,10 2795,10 C2742.2,10 2716.4,7.6 2689.1,5.1 C2662,2.6 2634.1,0 2578.8,0 C2523.5,0 2495.6,2.6 2468.6,5.1 C2441.3,7.6 2415.5,10 2362.7,10 C2309.9,10 2284.1,7.6 2256.7,5.1 C2229.7,2.6 2201.7,0 2146.5,0 C2091.3,0 2063.3,2.6 2036.3,5.1 C2008.9,7.6 1983.2,10 1930.3,10 C1877.4,10 1851.7,7.6 1824.3,5.1 C1798.3,2.7 1771.4,0.2 1720.2,0 L1720.2,0 C1667.1,0.1 1639.6,2.7 1613.1,5.1 C1585.8,7.6 1560,10 1507.2,10 C1454.4,10 1428.6,7.6 1401.3,5.1 C1374.2,2.6 1346.3,0 1291,0 C1235.7,0 1207.8,2.6 1180.8,5.1 C1153.5,7.6 1127.7,10 1074.9,10 C1022.1,10 996.3,7.7 969,5.1 C941.9,2.6 914,0 858.7,0 C803.4,0 775.5,2.6 748.5,5.1 C721.2,7.6 695.4,10 642.6,10 C589.8,10 564,7.6 536.6,5.1 C509.6,2.6 481.6,0 426.4,0 C371.2,0 343.2,2.6 316.2,5.1 C288.8,7.6 263.1,10 210.2,10 C157.3,10 131.6,7.6 104.2,5.1 C78.2,2.7 51.3,0.2 0,0 L0,152.1 L1720.2,152.1 L3440.4,152.1 L3440.4,0 C3387.2,0.1 3359.8,2.6 3333.2,5.1 Z" id="Path"></path>
        </g>
    </g>
</svg>